<?xml version="1.0" encoding="UTF-8" standalone="no"?>
<!-- Created with Inkscape (http://www.inkscape.org/) -->

<svg
   xmlns:dc="http://purl.org/dc/elements/1.1/"
   xmlns:cc="http://creativecommons.org/ns#"
   xmlns:rdf="http://www.w3.org/1999/02/22-rdf-syntax-ns#"
   xmlns:svg="http://www.w3.org/2000/svg"
   xmlns="http://www.w3.org/2000/svg"
   xmlns:sodipodi="http://sodipodi.sourceforge.net/DTD/sodipodi-0.dtd"
   xmlns:inkscape="http://www.inkscape.org/namespaces/inkscape"
   width="8.6999998cm"
   height="5.6999998cm"
   viewBox="0 0 87.000003 56.999997"
   version="1.1"
   id="svg8"
   inkscape:version="0.92.1 r15371"
   sodipodi:docname="freifunk-businesscard.svg"
   inkscape:export-filename="/home/jl/sync/GFX/freifunk-businesscard.png"
   inkscape:export-xdpi="499.87292"
   inkscape:export-ydpi="499.87292">
  <defs
     id="defs2" />
  <sodipodi:namedview
     id="base"
     pagecolor="#ffffff"
     bordercolor="#666666"
     borderopacity="1.0"
     inkscape:pageopacity="1"
     inkscape:pageshadow="2"
     inkscape:zoom="1.4142136"
     inkscape:cx="-69.314814"
     inkscape:cy="101.97167"
     inkscape:document-units="mm"
     inkscape:current-layer="layer1"
     showgrid="false"
     width="84.6mm"
     units="cm"
     inkscape:pagecheckerboard="false"
     borderlayer="true"
     showborder="true"
     inkscape:window-width="1916"
     inkscape:window-height="1032"
     inkscape:window-x="0"
     inkscape:window-y="22"
     inkscape:window-maximized="0" />
  <metadata
     id="metadata5">
    <rdf:RDF>
      <cc:Work
         rdf:about="">
        <dc:format>image/svg+xml</dc:format>
        <dc:type
           rdf:resource="http://purl.org/dc/dcmitype/StillImage" />
        <dc:title />
      </cc:Work>
    </rdf:RDF>
  </metadata>
  <g
     inkscape:groupmode="layer"
     id="layer2"
     inkscape:label="Background"
     transform="translate(0,2.0000019)">
    <rect
       style="opacity:1;fill:#ec086d;fill-opacity:1;stroke:none;stroke-width:2.45106387;stroke-linecap:round;stroke-linejoin:round;stroke-miterlimit:4;stroke-dasharray:none;stroke-dashoffset:0;stroke-opacity:1"
       id="rect321"
       width="87.042526"
       height="57.043381"
       x="-0.034835156"
       y="-2.0056262" />
  </g>
  <g
     inkscape:label="Layer 1"
     inkscape:groupmode="layer"
     id="layer1"
     transform="translate(0,-240)">
    <g
       transform="matrix(0.35277777,0,0,-0.35277777,-0.60701053,288.5293)"
       id="g883">
      <path
         d="m 59.7145,45.7184 c -7.5321,0 -14.0145,-4.4993 -16.9418,-10.9641 -0.3157,0.0234 -0.6329,0.0391 -0.9532,0.0391 -7.0922,0 -12.8418,-5.7489 -12.8418,-12.8418 0,-7.0907 5.7496,-12.83988 12.8418,-12.83988 2.8012,0 5.391,0.89958 7.5024,2.42188 2.9668,-2.00977 6.5429,-3.18555 10.3926,-3.18555 10.2757,0 18.6074,8.36715 18.6074,18.68555 0,10.3195 -8.3317,18.6848 -18.6074,18.6848"
         style="fill:#ffffff;fill-opacity:1;fill-rule:nonzero;stroke:none;stroke-width:0.1"
         id="path16"
         inkscape:connector-curvature="0" />
      <path
         d="m 31.7648,21.9516 c 0,5.5761 4.502,10.0968 10.0547,10.0968 5.5524,0 10.0535,-4.5207 10.0535,-10.0968 0,-5.575 -4.5011,-10.0946 -10.0535,-10.0946 -5.5527,0 -10.0547,4.5196 -10.0547,10.0946 z"
         style="fill:none;stroke:#ec086d;stroke-width:0.50432301;stroke-linecap:butt;stroke-linejoin:miter;stroke-miterlimit:3.8636899;stroke-dasharray:none;stroke-opacity:1"
         id="path18"
         inkscape:connector-curvature="0" />
      <path
         d="m 54.7047,23.7797 4.257,4.2734 h 4.0074 L 60.132,25.2047 h 5.6801 V 22.3539 H 60.132 l 2.8371,-2.8516 h -4.0074 l -4.257,4.2774 v 0"
         style="fill:#fab20b;fill-opacity:1;fill-rule:nonzero;stroke:none;stroke-width:0.1"
         id="path20"
         inkscape:connector-curvature="0" />
      <path
         d="m 42.0797,19.3863 -2.5141,2.5254 H 37.198 l 1.6766,-1.6847 h -3.3555 v -1.6836 h 3.3555 L 37.198,16.8609 h 2.3676 l 2.5141,2.5254 v 0"
         style="fill:#fab20b;fill-opacity:1;fill-rule:nonzero;stroke:none;stroke-width:0.1"
         id="path22"
         inkscape:connector-curvature="0" />
      <path
         d="m 45.6406,27.0336 c 0,7.8078 6.3008,14.1348 14.0739,14.1348 7.7746,0 14.0753,-6.327 14.0753,-14.1348 0,-7.8055 -6.3007,-14.1328 -14.0753,-14.1328 -7.7731,0 -14.0739,6.3262 -14.0739,14.1328 z"
         style="fill:none;stroke:#ec086d;stroke-width:3.02926993;stroke-linecap:butt;stroke-linejoin:miter;stroke-miterlimit:3.8636899;stroke-dasharray:none;stroke-opacity:1"
         id="path24"
         inkscape:connector-curvature="0" />
      <path
         d="m 48.9277,27.0336 c 0,5.9836 4.8293,10.832 10.7868,10.832 5.957,0 10.7871,-4.8484 10.7871,-10.832 0,-5.9824 -4.8301,-10.8328 -10.7871,-10.8328 -5.9575,0 -10.7868,4.8504 -10.7868,10.8328 z"
         style="fill:none;stroke:#ec086d;stroke-width:0.50432301;stroke-linecap:butt;stroke-linejoin:miter;stroke-miterlimit:3.8636899;stroke-dasharray:none;stroke-opacity:1"
         id="path26"
         inkscape:connector-curvature="0" />
      <path
         d="m 55.8238,94.0102 c 18.3184,1.3195 37.0625,-5.5332 50.1352,-18.4422 1.713,-1.7629 1.49,-4.8489 -0.316,-6.4641 -1.662,-1.957 -4.984,-1.991 -6.6969,-0.0859 C 87.7598,79.7867 71.9707,85.6078 56.4637,84.4508 43.584,83.6207 31.1051,78.0727 21.759,69.1852 c -0.8305,-0.8489 -1.8942,-1.545 -3.1156,-1.6055 -3.0621,-0.3594 -5.8938,2.8406 -5.2336,5.8348 0.1867,1.0761 0.8765,1.9718 1.6672,2.6867 10.9433,10.4785 25.6339,16.914 40.7468,17.909"
         style="fill:#ffffff;fill-opacity:1;fill-rule:nonzero;stroke:none;stroke-width:0.1"
         id="path28"
         inkscape:connector-curvature="0" />
      <path
         d="M 55.3641,78.1039 C 69.398,79.6305 83.9707,74.4574 93.902,64.4293 95.4539,62.6566 95.2598,59.7582 93.5355,58.1645 91.9637,56.2398 88.7961,56.025 87.0129,57.7699 80.6535,64.0387 72.0574,68.018 63.1422,68.6703 52.3184,69.5688 41.2578,65.4613 33.5516,57.8336 c -1.7782,-1.877 -5.0895,-1.6641 -6.6895,0.334 -1.7238,1.6277 -1.8672,4.6035 -0.2109,6.3281 7.639,7.6426 17.9679,12.5066 28.7129,13.6082"
         style="fill:#ffffff;fill-opacity:1;fill-rule:nonzero;stroke:none;stroke-width:0.1"
         id="path30"
         inkscape:connector-curvature="0" />
      <path
         d="m 57.45,62.4359 c 8.8559,0.8809 18.0137,-2.5117 24.1734,-8.9246 1.6891,-1.7558 1.4938,-4.7793 -0.2839,-6.4035 -1.6129,-1.9492 -4.8493,-2.0808 -6.6036,-0.2527 -3.4746,3.5652 -8.2855,5.8191 -13.2668,6.0898 -5.6535,0.4024 -11.3753,-1.8301 -15.3902,-5.8039 -0.9879,-1.1094 -2.4543,-1.7898 -3.9543,-1.6152 -3.4879,0.2453 -5.9066,4.8996 -3.5047,7.6906 4.8481,5.2586 11.7364,8.5164 18.8301,9.2195"
         style="fill:#ffffff;fill-opacity:1;fill-rule:nonzero;stroke:none;stroke-width:0.1"
         id="path32"
         inkscape:connector-curvature="0" />
    </g>
    <text
       xml:space="preserve"
       style="font-style:normal;font-variant:normal;font-weight:normal;font-stretch:normal;font-size:10.81360817px;line-height:5.63208723px;font-family:'Swiss911 XCm BT';-inkscape-font-specification:'Swiss911 XCm BT';letter-spacing:0px;word-spacing:0px;fill:#000000;fill-opacity:1;stroke:none;stroke-width:0.22528349px;stroke-linecap:butt;stroke-linejoin:miter;stroke-opacity:1"
       x="3.8411674"
       y="252.30888"
       id="text36"><tspan
         sodipodi:role="line"
         id="tspan34"
         x="3.8411674"
         y="252.30888"
         style="fill:#ffffff;stroke-width:0.22528349px">Freifunk [Community]</tspan></text>
    <g
       id="g33"
       transform="translate(2.4004698,0.01855794)">
      <text
         id="text40"
         y="270.4581"
         x="41.55365"
         style="font-style:normal;font-variant:normal;font-weight:normal;font-stretch:normal;font-size:12.69999981px;line-height:6.61458302px;font-family:'Swiss911 XCm BT';-inkscape-font-specification:'Swiss911 XCm BT';letter-spacing:0px;word-spacing:0px;fill:#000000;fill-opacity:1;stroke:none;stroke-width:0.26458332px;stroke-linecap:butt;stroke-linejoin:miter;stroke-opacity:1"
         xml:space="preserve"><tspan
           style="font-size:5.29166651px;fill:#ffffff;stroke-width:0.26458332px"
           y="270.4581"
           x="41.55365"
           id="tspan38"
           sodipodi:role="line">info@freifunk-xyz.de</tspan><tspan
           style="font-size:5.29166651px;fill:#ffffff;stroke-width:0.26458332px"
           y="278.9971"
           x="41.55365"
           sodipodi:role="line"
           id="tspan198" /></text>
      <text
         id="text40-7"
         y="277.32364"
         x="41.706097"
         style="font-style:normal;font-variant:normal;font-weight:normal;font-stretch:normal;font-size:12.69999981px;line-height:6.61458349px;font-family:'Swiss911 XCm BT';-inkscape-font-specification:'Swiss911 XCm BT';letter-spacing:0px;word-spacing:0px;fill:#000000;fill-opacity:1;stroke:none;stroke-width:0.26458332px;stroke-linecap:butt;stroke-linejoin:miter;stroke-opacity:1"
         xml:space="preserve"><tspan
           style="font-size:5.29166651px;fill:#ffffff;stroke-width:0.26458332px"
           y="277.32364"
           x="41.706097"
           id="tspan38-4"
           sodipodi:role="line">www.freifunk-xyz.de</tspan></text>
    </g>
    <text
       xml:space="preserve"
       style="font-style:normal;font-variant:normal;font-weight:normal;font-stretch:normal;font-size:12.69999981px;line-height:6.61458302px;font-family:'PHANTOM STENCIL';-inkscape-font-specification:'PHANTOM STENCIL';letter-spacing:0px;word-spacing:0px;fill:#000000;fill-opacity:1;stroke:none;stroke-width:0.26458332px;stroke-linecap:butt;stroke-linejoin:miter;stroke-opacity:1"
       x="3.862885"
       y="291.86066"
       id="text29"><tspan
         sodipodi:role="line"
         id="tspan27"
         x="3.862885"
         y="291.86066"
         style="font-style:normal;font-variant:normal;font-weight:normal;font-stretch:normal;font-size:4.76249981px;font-family:'Swiss911 XCm BT';-inkscape-font-specification:'Swiss911 XCm BT';fill:#ffffff;stroke-width:0.26458332px">gemeinschaftlich betrieben•nicht kommerziell•dezentral</tspan></text>
  </g>
</svg>
