<?xml version="1.0" encoding="UTF-8" standalone="no"?>
<svg
   xmlns:dc="http://purl.org/dc/elements/1.1/"
   xmlns:cc="http://creativecommons.org/ns#"
   xmlns:rdf="http://www.w3.org/1999/02/22-rdf-syntax-ns#"
   xmlns:svg="http://www.w3.org/2000/svg"
   xmlns="http://www.w3.org/2000/svg"
   version="1.1"
   id="svg2"
   viewBox="0 0 1500 210.00001"
   height="210"
   width="1500">
  <defs
     id="defs4">
    <style
       type="text/css"
       id="style4497"><![CDATA[
    @font-face { font-family:"Open Sans";src:url("#FontID0") format(svg)}
    .str0 {stroke:#2B2A29;stroke-width:0.2}
    .fil0 {fill:#2B2A29}
    .fil1 {fill:#FEFEFE}
    .fil3 {fill:black}
    .fil2 {fill:#2B2A29}
    .fil4 {fill:#2B2A29;fill-rule:nonzero}
    .fnt0 {font-weight:normal;font-size:10.1441;font-family:'Open Sans'}
    .fnt1 {font-weight:bold;font-size:10.1441;font-family:'Open Sans'}
   ]]></style>
  </defs>
  <metadata
     id="metadata7">
    <rdf:RDF>
      <cc:Work
         rdf:about="">
        <dc:format>image/svg+xml</dc:format>
        <dc:type
           rdf:resource="http://purl.org/dc/dcmitype/StillImage" />
        <dc:title></dc:title>
      </cc:Work>
    </rdf:RDF>
  </metadata>
  <g
     transform="translate(0,-308.57143)"
     id="layer4" />
  <g
     style="display:inline"
     transform="translate(808.09549,-601.03895)"
     id="layer1">
    <g
       id="layer3" />
    <g
       transform="matrix(3.5433073,0,0,3.5433073,-844.97315,365.5846)"
       id="layer2"
       style="clip-rule:evenodd;display:inline;fill-rule:evenodd;image-rendering:optimizeQuality;shape-rendering:geometricPrecision;text-rendering:geometricPrecision">
      <flowRoot
         xml:space="preserve"
         id="flowRoot5074"
         style="font-style:normal;font-weight:normal;font-size:15px;line-height:125%;font-family:Sans;letter-spacing:0px;word-spacing:0px;fill:#000000;fill-opacity:1;stroke:none;stroke-width:1px;stroke-linecap:butt;stroke-linejoin:miter;stroke-opacity:1"><flowRegion
           id="flowRegion5076"><rect
             id="rect5078"
             width="1465.7142"
             height="148.57143"
             x="2.8571429"
             y="268.78207" /></flowRegion><flowPara
           id="flowPara5080" /></flowRoot>      <path
         transform="matrix(0.28222221,0,0,0.28222221,10.4077,5.5116388)"
         id="path6913"
         d="m 665.42186,195.50601 c -0.004,-30.19123 -0.12118,-32.2649 -2.00546,-35.35534 -1.10093,-1.80565 -2.46293,-3.28299 -3.02668,-3.28299 -1.71761,0 -1.25882,-9.79566 0.49023,-10.46683 2.10809,-0.80895 1.89306,-4.64896 -0.40015,-7.14574 -2.27729,-2.47947 -3.96274,-14.08175 -2.20357,-15.16898 0.76054,-0.47004 0.65265,-1.13364 -0.34684,-2.13312 -1.66006,-1.66007 -3.03171,-1.94787 -2.10021,-0.44067 0.34337,0.55558 0.2417,1.01015 -0.22594,1.01015 -0.46764,0 -0.67952,3.06834 -0.47084,6.81853 0.3494,6.27904 0.17218,7.01229 -2.23982,9.26745 -2.88296,2.6955 -3.47611,6.88212 -1.10401,7.79238 1.75854,0.67481 2.17679,9.93873 0.49563,10.97774 -0.56078,0.34658 -1.94709,2.30533 -3.0807,4.35277 l -2.06109,3.72261 0.51213,-3.91336 c 0.28169,-2.15234 1.21343,-4.68827 2.07055,-5.63538 0.85713,-0.94711 1.55841,-2.90844 1.55841,-4.3585 0,-2.34131 -0.48065,-2.69858 -4.29315,-3.19112 -4.94548,-0.63892 -25.75846,-2.59961 -27.59514,-2.59961 -0.8357,0 -1.34954,-2.57008 -1.59514,-7.97828 -0.27383,-6.02984 -0.82588,-8.49051 -2.2605,-10.07574 -2.3715,-2.62049 -1.60853,-9.24328 1.41295,-12.26477 1.30592,-1.30592 2.0061,-3.36213 2.0061,-5.89134 0,-3.29966 -0.6635,-4.4891 -4.40212,-7.89153 l -4.4021,-4.006271 -0.7061,-10.54376 c -0.38835,-5.799074 -0.94739,-11.368338 -1.24231,-12.376147 -0.39055,-1.334603 -0.0604,-1.74623 1.21533,-1.515229 0.96336,0.174434 1.96614,-0.298752 2.22841,-1.051538 0.35242,-1.011567 -0.11738,-1.180091 -1.80053,-0.645881 -2.05706,0.652891 -2.21334,0.46771 -1.61549,-1.9143 0.51039,-2.033589 0.28563,-2.637115 -0.98212,-2.637115 -1.26272,0 -1.49229,0.604355 -0.98991,2.605982 0.57268,2.281753 0.39778,2.524644 -1.40572,1.952231 -1.46268,-0.464236 -2.05978,-0.20396 -2.05978,0.897854 0,0.96418 0.57364,1.331462 1.51522,0.97015 1.85172,-0.710571 1.87952,0.247457 0.40148,13.833837 l -1.11374,10.237775 -5.08417,4.900482 c -4.62154,4.45457 -5.02557,5.20409 -4.4402,8.23714 0.35418,1.83515 1.81347,4.28991 3.24286,5.45502 3.69973,3.01567 4.4629,9.41773 1.56224,13.10531 -1.74399,2.21713 -2.14461,4.11263 -2.14461,10.14711 0,6.87445 -0.1673,7.45734 -2.27284,7.91888 -2.84433,0.62349 -25.71879,4.59104 -26.46909,4.59104 -1.16446,0 -0.48143,6.29866 0.99201,9.14799 1.20407,2.32842 1.48239,5.89069 1.26269,16.16163 l -0.28181,13.17488 -12.58873,-15.20163 c -9.22863,-11.14414 -13.17978,-15.20165 -14.80318,-15.20165 -1.53422,0 -5.05244,3.18052 -11.45348,10.35407 -11.91666,13.35485 -11.15716,12.24035 -11.15716,16.37234 0,3.5011 -0.087,3.57817 -4.04061,3.57817 -2.22234,0 -4.04021,0.34093 -4.03971,0.75761 4.9e-4,0.41669 -11.36297,0.62176 -25.25214,0.45571 l -25.25306,-0.3019 -6.26904,3.67419 c -3.44798,2.0208 -6.80757,4.41066 -7.46577,5.31079 -1.05961,1.44911 -1.5278,1.24605 -4.08668,-1.77242 -1.58949,-1.87496 -3.52162,-4.29638 -4.29364,-5.38092 -1.50961,-2.12074 -29.54441,-15.88666 -32.29417,-15.85741 -0.91162,0.0101 -6.0367,1.30812 -11.38906,2.88538 l -9.73157,2.86777 -0.6225,-4.54161 c -0.34237,-2.49788 -0.62249,-17.87746 -0.62249,-34.17683 l 0,-29.63522 -2.52539,-1.6547 c -2.12515,-1.39246 -2.52538,-2.43932 -2.52538,-6.60562 0,-4.66364 -0.20516,-5.04877 -3.53553,-6.636907 -3.17322,-1.513209 -3.53882,-2.106754 -3.56762,-5.792033 -0.0307,-3.927968 -0.33384,-4.31417 -6.98934,-8.904283 -10.83209,-7.470593 -15.20193,-6.224883 -15.20193,4.333595 0,4.944303 -0.264,5.855753 -1.55286,5.361172 -0.85406,-0.327733 -2.44505,0.211557 -3.53553,1.198425 -1.56734,1.418426 -1.98268,3.117129 -1.98268,8.109161 0,5.82313 -0.15773,6.27361 -2.02569,5.78513 -4.6297,-1.21069 -5.04538,0.60644 -5.04538,22.05576 0,12.71281 -0.37059,20.07936 -1.01015,20.07936 -0.63119,0 -1.01015,6.04105 -1.01015,16.10282 0,9.64559 -0.40507,16.35318 -1.01015,16.72714 -0.55559,0.34337 -1.00973,1.84755 -1.00922,3.34262 l 9.4e-4,2.7183 -21.71922,-0.29082 -21.71922,-0.2908 0,-7.2058 c 0,-5.01956 0.46436,-7.7189 1.53052,-8.89699 1.41122,-1.55939 -0.12732,-2.33325 -19.73949,-9.92853 -11.69851,-4.53053 -21.59225,-8.23633 -21.98611,-8.2351 -1.10674,0.003 -41.67882,15.87504 -42.38432,16.58055 -0.34292,0.34292 -0.0856,1.16139 0.57185,1.81884 0.70204,0.70202 1.19535,4.23861 1.19535,8.56946 l 0,7.37411 -13.63706,0 -13.63706,0 0,-141.421356 0,-141.421357 644.9824,0 644.98239,0 0,160.109179 0,160.109174 -8.6359,0 -8.6359,0 0.1605,-26.01142 c 0.088,-14.30629 -0.1595,-28.28428 -0.5507,-31.06219 l -0.7112,-5.05077 -17.2023,0.3206 -17.2022,0.3206 0.6673,-4.44984 c 0.7768,-5.1805 -0.6601,-9.82842 -3.0384,-9.82842 -1.4591,0 -1.5967,-1.13394 -1.1333,-9.34391 0.2902,-5.13915 0.8375,-10.3115 1.2164,-11.49413 0.5582,-1.74195 0.093,-2.41325 -2.4504,-3.53553 -2.6444,-1.16693 -3.049,-1.79787 -2.5661,-4.00228 0.3609,-1.64825 0.033,-3.06522 -0.8861,-3.82792 -0.8025,-0.66603 -1.4591,-2.81433 -1.4591,-4.77399 0,-1.95967 -0.2728,-3.83576 -0.6061,-4.16911 -0.3334,-0.33335 -0.6205,1.1743 -0.6382,3.35033 -0.017,2.17604 -0.6898,4.82543 -1.4935,5.88753 -0.8434,1.11446 -1.2107,2.92997 -0.8686,4.29315 0.3902,1.55426 0.1509,2.36205 -0.6998,2.36205 -0.7109,0 -2.0826,0.71499 -3.0482,1.58886 -1.4013,1.2681 -1.5703,2.23545 -0.8372,4.79156 0.5051,1.76148 0.9185,6.7286 0.9185,11.03804 l 0,7.83535 -3.6436,0 c -3.1052,0 -3.524,0.26121 -2.8336,1.76777 0.4455,0.97227 0.9892,4.64893 1.2083,8.17037 l 0.3984,6.40259 -11.7535,-0.34168 -11.7535,-0.34168 -1.4089,5.05076 c -0.775,2.77792 -1.8879,6.86904 -2.4731,9.09137 -0.5854,2.22234 -1.0669,13.47291 -1.0699,25.00128 l -0.01,20.96066 -2.596,0 -2.5959,0 0.1485,-12.87944 c 0.2361,-20.48296 0.3743,-19.44544 -2.589,-19.44544 l -2.5815,0 0.1792,-10.44298 c 0.1055,-6.14269 -0.2873,-11.31496 -0.9539,-12.5605 -0.6234,-1.16463 -1.1333,-3.02407 -1.1333,-4.13207 0,-1.10801 -0.6602,-2.67477 -1.4671,-3.48169 -0.8069,-0.80692 -1.2097,-1.72459 -0.895,-2.03926 0.3146,-0.31467 -0.3888,-1.7938 -1.5633,-3.28695 -1.1958,-1.52023 -2.1355,-4.18433 -2.1355,-6.05449 0,-1.83683 -0.4546,-3.62063 -1.0101,-3.964 -0.5556,-0.34337 -1.0102,-1.50662 -1.0102,-2.585 0,-1.07838 -0.4546,-1.96068 -1.0102,-1.96068 -0.5555,0 -1.0101,0.8823 -1.0101,1.96068 0,1.07838 -0.4546,2.24163 -1.0102,2.585 -0.5555,0.34337 -1.0101,2.18848 -1.0101,4.10023 0,3.87539 -0.014,3.88164 -5.2914,2.41593 -4.1961,-1.16533 -5.8203,-3.36789 -5.8203,-7.89282 0,-1.66359 -0.6006,-3.6254 -1.3348,-4.35956 -1.3838,-1.38381 -1.6956,-2.10462 -1.6956,-3.91985 0,-0.58837 -0.4856,-0.76967 -1.0791,-0.4029 -0.5935,0.36679 -0.835,1.30275 -0.5368,2.07993 0.2983,0.77718 0.1506,1.41305 -0.3281,1.41305 -1.3693,0 -2.0967,-2.78483 -2.0967,-8.02761 0,-5.62968 -2.2071,-9.05493 -7.4328,-11.53466 -2.9489,-1.39934 -3.5454,-2.29054 -4.1264,-6.16551 -0.6498,-4.33287 -2.4139,-7.15873 -2.7367,-4.38388 -0.085,0.72727 -0.2595,1.77688 -0.3886,2.33247 -0.129,0.55558 -0.2871,2.43067 -0.3513,4.16687 -0.1,2.70448 -0.5773,3.2489 -3.3332,3.80008 -1.7692,0.35383 -4.042,1.39024 -5.0507,2.30312 -1.7396,1.57433 -1.8341,1.47306 -1.8341,-1.96653 0,-5.26185 -1.5934,-8.6576 -4.9725,-10.59698 -2.0526,-1.17799 -3.1728,-2.78246 -3.6248,-5.19167 -0.4875,-2.59874 -0.8871,-3.11868 -1.5687,-2.04145 -0.5031,0.79493 -0.9217,2.43749 -0.9302,3.6501 -0.01,1.3999 -0.8452,2.45763 -2.2883,2.8974 -3.8443,1.17153 -5.8084,3.59812 -5.8084,7.17623 0,1.85843 -0.3524,3.37897 -0.7831,3.37897 -0.4308,0 -0.6064,4.77297 -0.3905,10.6066 0.3823,10.32717 -0.085,11.97438 -2.6649,9.39442 -0.9428,-0.94281 -1.2157,-0.66222 -1.2277,1.26269 -0.01,1.36118 -0.3902,3.06564 -0.8482,3.78769 -0.7107,1.12035 -9.0441,4.24302 -11.3233,4.24302 -0.4149,0 -0.5076,-4.4766 -0.2062,-9.948 l 0.5482,-9.948 -3.6739,-2.93144 c -2.318,-1.84953 -3.674,-3.7923 -3.674,-5.26391 0,-1.29773 -0.4481,-2.0555 -1.0102,-1.70815 -0.5556,0.34337 -1.0101,1.70327 -1.0101,3.02201 0,1.45409 -0.7427,2.63339 -1.8871,2.99662 -4.6812,1.48577 -5.5638,4.0156 -5.3418,15.31234 0.1956,9.95081 0.073,10.70023 -1.8366,11.19952 -1.1255,0.29431 -2.0462,1.13095 -2.0462,1.8592 0,0.72825 -1.1977,2.26622 -2.6617,3.41772 -1.4638,1.15149 -2.1508,2.09362 -1.5264,2.09362 0.8172,0 1.1289,9.19455 1.1132,32.82996 l -0.022,32.82995 -4.0074,0 -4.0075,0 0,-65.07066 c 0,-51.13616 0.2704,-65.169799 1.2627,-65.533645 1.0102,-0.370383 1.0102,-0.730674 0,-1.801436 -0.6945,-0.736148 -1.2652,-3.406739 -1.2683,-5.934646 -0.01,-7.066017 -1.7158,-11.756883 -5.3273,-14.63811 -6.5087,-5.19275 -6.4459,-5.046571 -7.7443,-18.01896 -0.6797,-6.789872 -1.3845,-12.494617 -1.5665,-12.677212 -0.1819,-0.182596 -0.6149,2.772101 -0.9622,6.565991 -1.8595,20.310945 -1.2073,18.427122 -8.3556,24.130181 -3.6167,2.885379 -5.3187,7.57276 -5.3273,14.671778 0,2.546433 -0.252,4.87629 -0.5532,5.177467 -0.3011,0.301177 -0.5191,30.378472 -0.4844,66.838422 l 0.064,66.29083 -3.537,0 -3.5369,0 0.01,-32.57756 c 0.01,-34.32751 -0.3419,-39.14327 -2.8293,-39.14327 -1.1925,0 -1.4046,-0.87463 -0.98,-4.04041 0.2981,-2.22223 0.1307,-4.29462 -0.3721,-4.60531 -0.5026,-0.31068 -0.9202,-2.01541 -0.9277,-3.78826 -0.023,-5.35891 -1.0684,-7.63162 -4.1351,-8.98904 -1.9478,-0.86031 -2.9265,-2.03672 -2.9265,-3.51268 0,-1.22055 -0.4021,-2.46773 -0.8936,-2.77151 -1.0276,-0.63508 -1.9412,-4.57478 -3.0619,-13.20396 l -0.7872,-6.06092 -0.154,4.97904 c -0.1482,4.79069 -1.4456,10.26023 -3.3085,13.94761 -0.4874,0.96474 -0.8861,2.841 -0.8861,4.16947 0,1.32846 -0.6726,2.97356 -1.4946,3.65578 -0.822,0.68221 -1.7911,3.47548 -2.1535,6.20728 -0.3623,2.73178 -1.0102,5.18406 -1.4397,5.44949 -0.4295,0.26542 -0.537,2.30078 -0.2389,4.52301 0.4405,3.28437 0.2335,4.04041 -1.1063,4.04041 -1.7228,0 -1.8221,0.48772 -2.0547,10.10153 -0.074,3.05571 -0.24,8.67476 -0.3691,12.48679 l -0.2346,6.93095 -3.7881,-0.76245 c -2.0834,-0.41934 -20.3798,-0.66682 -40.6586,-0.54993 -29.1881,0.16824 -37.2386,-0.0647 -38.6369,-1.11774 -0.9715,-0.73164 -2.3426,-3.33227 -3.0469,-5.77917 -0.7271,-2.52609 -2.3649,-5.2322 -3.7895,-6.26122 -2.8126,-2.03158 -15.9002,-4.94723 -22.2069,-4.94723 -6.3068,0 -19.3944,2.91565 -22.207,4.94723 -1.4246,1.02902 -3.0624,3.73513 -3.7895,6.26122 -0.7043,2.4469 -2.0754,5.04753 -3.0469,5.77917 -1.3983,1.05308 -9.4488,1.28598 -38.63686,1.11774 -20.27882,-0.11689 -38.61938,0.13887 -40.7568,0.56835 -3.03947,0.61072 -4.10647,1.41265 -4.89705,3.68048 -0.55594,1.59479 -1.64819,2.89962 -2.42722,2.89962 -1.78872,0 -1.75153,0.98721 0.13094,3.47607 1.07081,1.41573 1.48311,4.72525 1.48311,11.90483 0,9.51831 -0.0836,9.89923 -1.9539,8.8983 -1.07464,-0.57513 -3.15263,-1.04569 -4.61777,-1.04569 l -2.66386,0 0.23056,-12.37437 c 0.26514,-14.23081 -0.26471,-15.82479 -7.63915,-22.98097 -4.2243,-4.09927 -4.62271,-4.87805 -4.05683,-7.93008 0.44091,-2.37805 0.14919,-3.91291 -0.98105,-5.16182 -0.88471,-0.97758 -1.97284,-3.77301 -2.41809,-6.21205 l -0.80953,-4.43463 -1.17662,4.04061 c -0.64713,2.22233 -1.17915,4.55316 -1.18224,5.17962 -0.003,0.62644 -0.65435,1.67737 -1.44721,2.33539 -0.95435,0.79204 -1.25908,2.32093 -0.90163,4.52363 0.5067,3.12247 0.20687,3.53971 -4.87188,6.77937 -2.97651,1.89867 -5.55045,4.12346 -5.71988,4.94397 -0.16942,0.8205 -0.85987,1.9464 -1.53432,2.50198 -0.78577,0.64729 -1.09646,3.07345 -0.86489,6.75392 0.31161,4.95285 0.0708,5.92524 -1.74868,7.06153 -1.16052,0.72476 -2.11005,1.83459 -2.11005,2.46629 0,0.63171 -0.60439,1.65016 -1.34309,2.26322 -0.79477,0.65961 -1.16037,2.35968 -0.8955,4.1643 0.24618,1.6773 0.0551,3.01308 -0.42467,2.96839 -0.47976,-0.0446 -6.49165,-6.43775 -13.35978,-14.2068 -6.86812,-7.76905 -13.03402,-13.91583 -13.70197,-13.65951 -0.96417,0.36998 -35.38924,25.41748 -51.93031,37.78422 l -3.3685,2.51842 0.33804,-27.89647 0.33805,-27.89646 -2.67641,6.4e-4 c -2.44629,5.9e-4 -4.4795,-1.16519 -16.40492,-9.40608 -2.6038,-1.79932 -5.24436,-2.71511 -7.82868,-2.71511 -3.87615,0 -3.89965,-0.0243 -3.89965,-4.04061 0,-3.26774 -0.35986,-4.04061 -1.88141,-4.04061 -1.03477,0 -3.64854,-1.40798 -5.80837,-3.12883 -5.87329,-4.67959 -8.89529,-5.96254 -14.04474,-5.96254 -5.18882,0 -6.80592,0.68706 -13.31966,5.65911 -2.47309,1.88774 -5.40639,3.43226 -6.51844,3.43226 -1.72006,0 -1.97244,0.56201 -1.69039,3.76434 l 0.33153,3.76432 -4.68004,0.68071 c -3.32623,0.4838 -7.06927,2.31699 -12.93942,6.3372 -5.59825,3.83399 -9.25442,5.65648 -11.34763,5.65648 -2.85216,0 -3.03886,0.21236 -2.44222,2.77792 0.3553,1.52786 0.92876,14.93763 1.27436,29.7995 l 0.62835,27.02158 -5.82679,0 -5.8268,0 0.43219,-12.12183 c 0.2377,-6.667 0.0665,-12.12183 -0.38057,-12.12183 -0.44701,0 -0.81276,-0.68185 -0.81276,-1.51523 0,-0.83337 -0.68185,-1.51522 -1.51523,-1.51522 -1.31953,0 -1.51523,-4.82072 -1.51523,-37.32545 0,-34.44041 0.13609,-37.40161 1.76067,-38.31078 1.6473,-0.92187 1.6236,-1.17071 -0.36816,-3.86471 -2.37371,-3.21061 -3.24941,-7.52624 -3.64815,-17.97885 -0.22365,-5.86279 -0.67539,-7.476761 -2.6436,-9.444922 -1.72644,-1.726401 -2.6769,-2.070752 -3.48502,-1.26263 -0.61115,0.611142 -0.73731,1.111168 -0.28038,1.111168 0.45694,0 0.27622,0.668226 -0.40159,1.484934 -0.69695,0.83978 -1.26082,4.588386 -1.29782,8.62803 -0.036,3.92869 -0.44719,7.37903 -0.91379,7.6674 -0.46661,0.28838 -0.56199,2.31516 -0.212,4.50396 0.57331,3.58527 0.42338,3.97964 -1.51303,3.97964 -2.45092,0 -2.92119,2.51815 -0.63419,3.39576 1.31012,0.50273 1.51523,5.78191 1.51523,38.99895 0,36.95104 -0.0726,38.4175 -1.90249,38.4175 -2.60713,0 -3.11832,2.59466 -3.13448,15.9099 l -0.0138,11.36421 -3.03046,0 -3.03046,0 -0.004,-32.07234 2.7e-4,0 z"
         style="fill:none;fill-opacity:1;stroke:none;stroke-width:2.52538133;stroke-miterlimit:4;stroke-dasharray:none;stroke-dashoffset:0;stroke-opacity:1" />
    </g>
    <path
       id="rect4501"
       d="m 432.90392,601.03949 -1.85661,22.85765 0.58824,1.10087 c 0,0 -2.72401,1.99535 -2.90964,2.08477 -0.13488,0.0647 -0.13887,1.07017 -0.13161,1.6168 -1.80934,0.46902 -4.49271,1.7128 -6.70873,3.88952 -2.90923,2.8573 -2.90964,7.56039 -2.90964,7.56039 0,0 -0.43212,8.98829 -0.80368,9.82162 -0.37116,0.83332 -2.47691,2.73878 -2.47691,2.73878 l 1.88857,0 0,129.26709 -8.33009,0 -0.10762,-33.11463 0.88138,-0.93018 -0.19737,-1.47487 -0.73987,0 -0.28324,-25.99726 0.0276,-2.98043 0.73987,-2.65247 -1.53559,0 0,-4.01802 -2.70032,0 -0.10965,-5.57729 0.70994,-0.90142 c 0,0 0.76611,0.24539 -0.48459,-1.14882 -1.25081,-1.3942 -1.05099,-1.14883 -1.05099,-1.14883 0,0 -0.48368,1.06822 -0.6541,-3.14154 -0.17072,-4.21009 0.45407,-5.852 -1.30829,-7.32832 -1.76267,-1.47632 -3.23955,-2.45876 -3.63756,-2.45876 l -2.02815,0 0,-3.99118 c 0,0 0.19839,-1.05199 -0.51247,-1.42116 -0.71057,-0.36882 -1.33618,-0.60223 -1.33618,-0.60223 l 0,-4.08515 -0.61029,-0.94361 -0.0858,-1.28499 -0.71189,-0.73841 -0.38494,0 0,-10.14189 -0.66809,0 0,10.14189 -0.35492,0 -0.71199,0.73841 -0.0858,1.28499 -0.61019,0.94361 0,4.08515 c 0,0 -0.62531,0.23341 -1.33617,0.60223 -0.71067,0.36917 -0.51258,1.42116 -0.51258,1.42116 l 0,4.50518 c -0.67186,0.42657 -1.57449,1.09201 -2.5926,1.94476 -1.76267,1.47632 -1.13777,3.11823 -1.30819,7.32832 -0.17042,4.20976 -0.6541,3.14154 -0.6541,3.14154 0,0 0.19972,-0.24537 -1.05098,1.14883 -1.25071,1.39421 -0.48266,1.14883 -0.48266,1.14882 l 0.70995,0.90142 -0.11365,5.57729 -2.69827,0 0,4.01802 -1.53559,0 0.73793,2.65247 0.0276,2.98043 -0.2473,22.71763 c -0.29918,-0.98113 -0.55567,-1.91331 -0.52248,-2.24395 0.0858,-0.84758 -12.56589,-3.08784 -12.56589,-3.08784 l -6.33788,1.12007 -64.95346,0 0,-0.62908 c 0,0 -0.93826,0.13769 -2.55869,-1.1469 -1.62085,-1.28496 -2.16181,-4.67444 -2.27546,-5.60415 -0.11364,-0.92936 -0.70984,-3.58155 -2.5008,-5.13999 -1.79054,-1.55807 -5.685,-2.73265 -11.76823,-3.82623 -4.99292,-0.89759 -9.37249,-1.33313 -11.08421,-1.49405 l 0,-0.14768 c 0,0 -0.61366,0.0641 -0.71199,0.0729 -0.098,-0.009 -0.71189,-0.0729 -0.71189,-0.0729 l 0,0.14768 c -1.71182,0.16093 -6.09129,0.59646 -11.08421,1.49405 -6.08333,1.09358 -9.97738,2.26816 -11.76823,3.82623 -1.79095,1.55843 -2.38716,4.21063 -2.5008,5.13999 -0.11364,0.92971 -0.65492,4.31919 -2.27545,5.60415 -1.62013,1.2846 -2.55666,1.1469 -2.55666,1.1469 l 0,0.62908 -64.95358,0 -6.33978,-1.12007 c 0,0 -12.64933,2.24026 -12.56394,3.08784 0.0853,0.84724 -1.59343,5.46796 -1.59343,5.46796 l -2.6145,0 0,0.93018 3.2407,3.49827 0,26.93513 -1.82676,0 0,-7.33602 -3.18486,-1.29075 -5.3247,0 0,-24.02373 0.83959,-0.28193 -1.42592,-1.73187 -1.78088,-3.19524 0.74386,-0.39317 -10.47393,-9.10624 c -0.0129,-0.0386 -0.0877,-0.28001 -0.0877,-0.28001 l 0,-4.89642 0.79572,-0.25316 c 0,0 -0.93256,-0.94552 -0.99515,-1.1776 -0.0629,-0.23169 -0.0623,-0.1717 0.0739,-0.31262 0.13643,-0.14127 0.37693,-0.4337 0.37693,-0.70579 0,-0.2721 -0.38804,-0.57367 -0.4926,-0.61373 -0.105,-0.0404 -0.46156,-0.43411 -0.69201,-0.73648 -0.23046,-0.30233 -0.67008,-0.3318 -0.67008,-0.3318 0,0 -0.67347,-2.53729 -0.64814,-2.56233 0.0264,-0.0254 0.20857,-0.23005 0.20143,-0.26275 -0.009,-0.0327 -0.33441,-0.20501 -0.3869,-0.26275 -0.0529,-0.0581 -0.0599,-0.50796 -0.0599,-0.60606 0,-0.0985 -0.69001,-0.92248 -0.69001,-0.92252 l 0.0379,-0.47372 c 0,0 0.17295,-0.23626 0.18745,-0.30687 0.016,-0.0706 -0.17295,-0.37231 -0.18745,-0.4833 -0.0146,-0.10177 -0.62593,-0.78658 -0.73589,-0.9091 l 0,-0.57729 c 0.15706,-0.0283 0.27341,-0.19413 0.27321,-0.38933 2e-4,-0.19521 -0.11614,-0.36101 -0.27321,-0.38933 l 0,-1.92751 -0.11571,0 0,1.93518 c -0.14525,0.0403 -0.24863,0.19856 -0.24929,0.38166 -7e-5,0.18381 0.10343,0.34314 0.24929,0.38358 l 0,0.56195 c -0.0707,0.0776 -0.5935,0.65264 -0.73589,0.8036 -0.15293,0.16109 -0.15754,0.84196 -0.15754,0.84196 l 0.14558,0.0997 0.022,0.40276 c 0,0 -0.41757,0.78592 -0.5225,0.98773 -0.10485,0.20145 -0.27321,0.63482 -0.27321,0.63482 l -0.1775,0.31262 c 0,0 0.10457,0.23207 0.16753,0.23207 0.063,0 -0.48289,2.59951 -0.76582,2.62946 -0.28293,0.0302 -0.3764,0.14184 -0.5544,0.34329 -0.17835,0.20147 -3.5e-4,0.13026 -0.2413,0.37208 -0.24133,0.24182 -0.18798,0.27244 -0.34501,0.39317 -0.15739,0.12109 -0.33549,0.888 -0.53447,1.0491 -0.19899,0.16145 -0.69202,0.32221 -0.69202,0.32221 l 0.8376,0.74606 0,5.88415 -2.32533,0.52359 0.41282,0.27235 -0.13157,0.01 -8.99019,5.36056 0.77576,0.54468 c 0,0 -1.90733,2.98219 -2.13786,3.22401 -0.23047,0.24218 -2.1578,1.25047 -2.1578,1.25047 l 1.6333,0.54469 0,10.45836 -5.23896,3.52704 0.67008,0.51401 c 0,0 -1.004776,1.77384 -1.507662,2.17682 -0.5029,0.40291 -1.551557,0.80743 -1.551557,0.80744 l 1.152686,0.40276 0,5.74413 -2.1578,0 -25.9874,-28.05517 -57.939672,40.95312 0,-38.59601 0.650129,-1.78749 0,-7.36862 c 0,0 -0.184958,-2.47822 0.349,-3.23743 0.534028,-0.7592 0.301142,-4.33255 0.301142,-4.33255 0,0 -4.5271567,-0.0659 -6.1523424,-0.71346 -1.6252,-0.64752 -5.4563715,-3.03735 -6.617,-4.01994 -1.16101432,-0.98259 -7.5702286,-5.33754 -7.5702858,-5.33754 0,0 -3.7039857,-1.89706 -5.8751288,-2.08668 -2.170771,-0.18998 -5.921,-0.37975 -5.921,-0.37975 l 0,-3.40622 0.462672,-0.58112 0,-3.08016 -2.738129,0 c 0,0 -4.273957,-2.41109 -6.224143,-4.24242 -1.950443,-1.83086 -5.153957,-3.842 -6.477414,-4.35556 -1.323557,-0.51356 -3.669272,-1.0491 -5.225,-1.0491 l -0.735886,0 -0.0014,0 -0.0086,0 -0.0014,0 -0.0014,0 -0.0014,0 -0.0043,0 -0.01,0 -0.0086,0 -0.0057,0 -0.0043,0 -0.0043,0 -0.01,0 -0.01143,0 -0.01,0 -0.0043,0 -0.0086,0 -0.01429,0 -0.01429,0 -0.01428,0 -0.018,0 -0.0014,0 -0.01586,0 -0.018,0 -0.022,0 -0.01,0 -0.01429,0 -0.018,0 -0.01,0 -0.022,0 -0.0043,0 -0.02386,0 -0.0043,0 -0.022,0 -0.0086,0 -0.018,0 -0.01429,0 -0.01,0 -0.022,0 -0.0014,0 -0.018,0 -0.016,0 -0.0014,0 -0.018,0 -0.01429,0 -0.01429,0 -0.01586,0 -0.0057,0 -0.0043,0 -0.01,0 -0.01143,0 -0.01,0 -0.0043,0 -0.0043,0 -0.01,0 -0.0057,0 -0.0086,0 -0.0043,0 -0.0014,0 -0.0014,0 -0.0014,0 -0.0014,0 -0.0043,0 -0.0014,0 -0.0014,0 -0.0014,0 -0.7319,0 c -1.5557,0 -3.901557,0.53554 -5.225015,1.0491 -1.323442,0.51356 -4.527,2.5247 -6.4774,4.35556 -1.950114,1.83133 -6.222142,4.24242 -6.222142,4.24242 l -2.740129,0 0,3.08016 0.462686,0.58112 0,3.40622 c 0,0 -3.750243,0.18976 -5.921015,0.37975 -2.171142,0.18962 -5.875128,2.08668 -5.875128,2.08668 0,0 -6.407129,4.35495 -7.568286,5.33754 -1.160957,0.98259 -4.991814,3.37242 -6.617,4.01994 -1.625543,0.64753 -6.154329,0.71346 -6.154329,0.71346 0,0 -0.231257,3.57334 0.303129,4.33255 0.534,0.75921 0.347,3.23743 0.347,3.23743 l 0,7.36862 0.650143,1.78749 0,41.97153 -11.798143,0 0,-21.19674 0.65811,0 0,-2.8385 -1.48174,0 0,-2.86727 -3.76719,0 0,-74.82533 3.1689,-0.31645 -0.0639,-1.73571 -3.7991,-4.36325 c 0,0 -0.0339,-3.41125 -0.0339,-3.48675 l 0,-0.98964 c 0,-0.0529 0.12486,-0.15005 0.1795,-0.18028 0.0549,-0.0299 0.41746,-0.52875 0.38489,-0.73265 -0.0326,-0.20354 -1.2863,-1.39638 -1.2863,-1.62255 0,-0.22651 -0.31442,-0.58151 -0.6282,-1.06443 -0.31405,-0.48295 -0.72193,-0.70963 -0.72193,-0.70963 0,0 0.21984,-0.34691 0.26724,-0.55811 0.0471,-0.21156 0.36296,-0.75567 0.36296,-0.75567 0,0 -0.10972,-4.16428 -0.10972,-4.31529 0,-0.15101 -0.3689,-3.13962 -0.36894,-3.13962 0,0 0.21151,0.0889 0.34503,0.0135 0.13314,-0.0755 0.1564,-0.22606 0.21138,-0.42961 0.0539,-0.2039 0.0724,-0.50498 0.04,-0.76141 -0.0326,-0.25677 -0.026,-0.68853 -0.026,-0.68853 0,0 -0.0934,-0.95844 -0.18747,-1.75104 -0.094,-0.79228 -0.14955,-0.77676 -0.14955,-0.77676 l -1.10682,-1.03375 c 0,0 -0.60366,-0.50562 -0.81567,-0.58113 -0.21164,-0.0755 -0.61193,-0.0901 -0.71394,-0.0901 -0.102,0 -0.29125,0.0378 -0.42479,-0.008 -0.13357,-0.0453 -0.0937,-0.2572 -0.0937,-0.514 0,-0.25643 0.0217,-0.14979 0.0698,-0.39893 0.0472,-0.24877 -0.0216,-0.38524 -0.13157,-0.58879 -0.11,-0.20389 -0.2366,-0.40056 -0.42478,-0.50633 -0.1885,-0.10542 -0.36909,-0.0898 -0.60426,-0.0672 -0.23553,0.0226 -0.44683,0.0752 -0.58033,0.10548 -0.13314,0.0299 -0.2934,0.15004 -0.3151,0.19563 -0.0217,0.0453 -0.0697,0.28013 -0.0699,0.40852 0,0.12839 5.3e-4,0.30929 0.0479,0.46029 0.0471,0.15101 0.16436,0.22604 0.2114,0.32412 0.047,0.0981 0.10172,0.20452 0.10172,0.28002 0,0.0751 -1.3e-4,0.10518 -0.10972,0.2033 -0.11,0.0981 0.11814,0.30111 0.15754,0.30111 0.0394,0 0.35698,0.28381 0.35698,0.28386 0,0 -0.14633,0.13848 -0.15755,0.1611 -0.0114,0.0226 -0.20045,0.12782 -0.51453,0.2148 -0.31404,0.0866 -0.36874,0.44264 -0.5923,0.41619 -0.22358,-0.0264 -0.4229,0.0676 -0.5564,0.10549 -0.13342,0.0376 -0.35382,0.34259 -0.4208,0.40659 -0.068,0.064 -0.0567,0.24244 -0.0857,0.28002 -0.0289,0.0379 -0.0897,0.30664 -0.0897,0.52167 0,0.21503 0.0814,0.18832 0.18345,0.19946 0.102,0.0115 0.12257,0.0153 0.17352,0.023 0.051,0.008 -0.0254,0.0142 -0.0479,0.29344 -0.0217,0.2794 -0.08,0.55952 -0.10171,0.88415 -0.0217,0.32463 7.7e-4,0.33079 -0.0857,0.50441 -0.086,0.17328 -0.15836,0.55972 -0.19743,0.65784 -0.0394,0.0981 -0.50854,1.69735 -0.50854,1.69735 l 0.0779,1.01074 0.0778,0.3855 c 0,0 0.26722,0.0908 0.26722,0.0153 0,-0.0755 0.15756,-0.16688 0.15756,-0.16686 l 0.13357,0.15151 0.0143,0.15152 c 0,0 -0.10043,0.27928 -0.12557,0.34713 -0.0217,0.0679 0.0479,0.13618 0.0479,0.13618 l 0.25127,0 -0.0957,0.49674 0.24331,4.63559 -0.25926,0.2033 -0.69003,0.45263 c 0,0 -0.033,0.10633 0.0143,0.257 0.0471,0.15101 0.22101,0.21096 0.31509,0.21096 0.0944,0 0.6282,-0.0614 0.6282,-0.0614 l -0.25129,0.257 -0.4866,1.31377 -0.95924,0.87456 c 0,0 -0.29742,0.46073 -0.43077,0.5888 -0.13458,0.12839 -0.31335,0.78543 -0.10172,1.07978 0.21202,0.29436 0.59629,0.42386 0.59629,0.42386 l 0.0937,5.22247 -3.89283,0.60414 0,1.77982 2.87375,1.37323 0,76.30594 -3.87488,0 0,2.86728 -1.39998,0 0,2.8385 0.68603,0 0,21.19673 -7.88935,0 0,-63.89324 c 0,0 -0.99007,-2.8548 -2.35125,-4.04486 -1.00989,-0.88291 -1.88437,-1.77315 -3.03329,-2.29957 l 0,-9.76408 c 0.62073,0.0623 1.72204,0.0126 2.21763,-1.02417 0.70731,-1.47875 0.95506,-3.85755 -0.10571,-5.01341 -0.7225,-0.78704 -2.42218,-2.26216 -3.50395,-3.24511 l -1.08688,-13.57496 0.91538,0 c 0.0611,0.15424 0.22469,0.26466 0.4168,0.26468 0.24422,0 0.44269,-0.18027 0.44273,-0.40085 0,-0.2206 -0.19863,-0.39893 -0.44273,-0.39893 -0.161,0 -0.30137,0.0779 -0.37891,0.19372 l -0.98119,0 -0.10771,-1.35021 c 0.20477,-0.0553 0.35896,-0.31068 0.35896,-0.61757 0,-0.34726 -0.19858,-0.62907 -0.44272,-0.62907 -0.24457,0 -0.44273,0.28182 -0.44273,0.62907 0,0.294 0.14327,0.54097 0.33503,0.6099 l -0.12557,1.35788 -1.08687,0 c -0.0771,-0.11588 -0.21999,-0.19372 -0.38092,-0.19372 -0.24457,0 -0.44272,0.17832 -0.44272,0.39893 0,0.2206 0.19827,0.4008 0.44272,0.40085 0.19212,0 0.35568,-0.11044 0.41682,-0.26468 l 1.02107,0 -1.21851,13.29496 c -1.0369,0.96031 -3.01383,2.65874 -3.80906,3.52511 -1.06043,1.15586 -0.81269,3.53466 -0.10572,5.01341 0.4886,1.02176 1.5641,1.08396 2.18972,1.02608 l 0,10.31069 c -0.72272,0.50072 -1.37067,1.12722 -2.08402,1.75105 -1.36107,1.19006 -2.34925,4.04486 -2.34925,4.04486 l 0,38.04942 -0.81367,-0.74799 0,-26.95814 c 0,0 -1.48358,-9.99489 -1.34215,-12.51052 0.14186,-2.51562 1.55355,-4.75833 1.55355,-4.75833 l 1.91051,-1.63214 0,-5.4392 -33.26451,-2.89028 0,-11.08168 c 0,0 -1.71436,-6.01808 -2.70423,-6.96969 -0.98953,-0.95197 -1.41395,-1.13924 -1.41395,-1.13924 l 0,-3.87417 c 0,0 -0.0326,-4.02314 0.90342,-6.07594 1.14656,-0.16426 2.36427,-0.63543 3.04724,-1.86996 1.53836,-2.7804 2.07519,-7.25398 -0.23133,-9.42653 -1.57128,-1.48014 -5.26465,-4.25068 -7.61814,-6.09895 l -2.3672,-25.5197 1.99227,0 c 0.13286,0.29018 0.4891,0.49674 0.90742,0.49674 0.53107,0 0.96112,-0.33517 0.96122,-0.7499 0,-0.41475 -0.43014,-0.75182 -0.96122,-0.75182 -0.35059,0 -0.65742,0.14589 -0.82565,0.3644 l -2.13387,0 -0.23333,-2.53931 c 0.44537,-0.10369 0.78375,-0.58345 0.78375,-1.16034 0,-0.65273 -0.43212,-1.18335 -0.96323,-1.18335 -0.5318,0 -0.96325,0.53062 -0.96325,1.18335 0,0.55254 0.30823,1.01554 0.72593,1.145 l -0.26923,2.55465 -2.3672,0 c -0.1686,-0.21851 -0.47578,-0.36441 -0.82564,-0.3644 -0.5318,0 -0.96334,0.33708 -0.96324,0.75182 0,0.41474 0.43144,0.7499 0.96324,0.7499 0.41792,0 0.77263,-0.20654 0.9054,-0.49674 l 2.21963,0 -2.6484,24.9942 c -2.25507,1.80512 -6.55519,4.99574 -8.28421,6.62445 -2.30645,2.17255 -1.76963,6.64613 -0.23133,9.42653 0.82993,1.50017 2.44343,1.89057 3.76318,1.94285 0.46842,1.13762 1.99029,4.94151 1.99029,6.47868 0,1.802 0.17553,3.36476 -0.0379,3.77253 -0.21201,0.40781 -0.91937,0.88416 -0.91937,0.88416 0,0 -3.46406,4.14691 -3.46406,5.03069 0,0.88377 0.57436,14.11772 0.57436,14.11772 l -30.89531,5.03068 0.28518,4.35174 2.89769,5.98387 0,28.24697 c -4.5087,-5.1032 -26.43583,-30.70573 -26.43612,-30.70573 l -4.10023,0 -18.02824,18.97005 0,2.44725 -2.33331,0 0,8.22782 -8.76483,0 0,2.7196 -3.04127,-1.53049 -48.83582,0 -12.27277,6.81433 -2.02418,3.36402 -1.08689,0 -9.77194,-11.13922 -29.89219,-13.50784 -22.15041,6.2102 0,-4.98657 -1.71707,-0.95128 0,-61.37311 -5.44838,-3.89719 0,-9.06596 -6.74064,-3.74375 0,-7.40697 -13.7605,-9.5627 c 0,0 -1.19703,-0.40793 -2.5088,-0.46989 -0.19683,-0.01 -0.39598,-0.0107 -0.5943,-0.002 -0.59478,0.0264 -1.18013,0.14519 -1.65723,0.42578 -1.69683,0.9972 -2.59318,1.72226 -2.87575,2.58342 -0.28292,0.86115 -0.28119,13.37167 -0.28119,13.37167 0,0 -0.75516,-1.26839 -1.86266,-1.5631 -1.10741,-0.29435 -1.64957,-0.31784 -2.45095,-0.15918 -0.80102,0.15831 -1.98033,1.45124 -2.4749,2.51629 -0.4949,1.06505 -0.54245,2.51438 -0.54245,2.51438 l 0,11.60528 c 0,0 -1.38897,-1.81335 -2.37917,-1.99463 -0.98951,-0.18127 -2.214,-0.1819 -3.01534,0.5888 -0.80104,0.77035 -1.74312,1.49608 -1.88459,2.49328 -0.14185,0.99721 0,38.84534 0,38.84534 l -2.16977,0 0,31.63784 -1.41196,0 0,42.67539 -1.63331,0 0,-36.49206 -44.03956,0 0,-15.6233 3.10707,-2.52779 -43.64072,-16.20633 0,-0.0306 -0.0399,0.0153 -0.04,-0.0153 0,0.0306 -43.64272,16.20633 3.10709,2.52779 0,15.6233 -44.03959,0 0,36.49206 -1.4638,0 0,-44.79852 -134.20075,0 0,1.62446 -20.3775,0 0,43.17406 -11.02835,0 0,29.06208 1500.00009,0 0,-29.06208 -18.59663,0 0,-41.20819 1.06499,-0.71539 -2.12791,-20.18216 -0.67208,0 0,1.36363 -34.35344,0 0,-5.96661 1.68517,-0.43345 -2.39513,-7.47601 -0.75181,-0.19372 -2.52469,0 0,-16.27729 c 0.3634,-0.63151 1.02903,-1.56117 1.02903,-1.56117 0,0 0,-0.66508 -0.28518,-0.78443 -0.28366,-0.11934 -0.56639,-0.61286 -0.4069,-0.85155 0.19717,-0.29541 2.60525,-1.99662 0.95725,-3.05332 -0.95725,-0.61342 -3.84718,-2.38588 -3.84687,-2.38588 l -1.22253,-0.10932 0,-2.90755 c 0,0 0.67472,-0.22114 0.72792,-0.73264 0.0531,-0.51112 -0.5863,-0.80169 -0.5863,-0.80169 0,0 0.24874,-1.3459 -0.44273,-2.079 -0.69147,-0.73313 -1.34659,-1.22833 -1.7012,-1.29652 -0.11357,-0.0221 -0.1937,-0.0387 -0.2712,-0.0556 l 0,-2.5604 0.15163,0 0.098,-0.62907 0.098,-0.62908 -0.25732,-0.38933 -0.0899,-0.13617 0,-2.9977 -0.35493,0 0,3.0303 -0.0674,0.10357 -0.25731,0.38933 0.098,0.62908 0.098,0.62907 0.12971,0 0,2.5604 c -0.0766,0.0167 -0.15367,0.0341 -0.26529,0.0556 -0.35461,0.0681 -1.00972,0.56339 -1.7011,1.29652 -0.69105,0.7331 -0.44272,2.079 -0.44272,2.079 0,0 -0.63756,0.29059 -0.58436,0.80169 0.0531,0.51148 0.72597,0.73264 0.72597,0.73264 l 0,2.80591 -1.22059,0.1074 c 0,0 -2.88951,1.77402 -3.84687,2.38779 -1.6479,1.05671 0.75967,2.75601 0.95726,3.0514 0.15919,0.23872 -0.12514,0.73222 -0.40884,0.85156 -0.28355,0.11933 -0.28325,0.78442 -0.28325,0.78442 0,0 0.58426,0.8144 0.95726,1.43652 l 0,16.50551 -7.60217,0 2.76414,4.60492 0,11.22168 -22.35191,0 -0.84953,-0.44304 -1.13277,0 -5.22502,18.74757 0,40.68077 -5.71953,0 c -0.0684,-5.64507 -0.28068,-24.15793 0.0379,-24.40347 0.3687,-0.28392 1.03302,-1.38277 1.03302,-1.38282 l -1.58542,0 0,-5.28576 0.73783,0 0,-1.06444 -5.95886,0 0,-16.86609 c 0,0 -10e-5,-1.25933 0.16756,-1.79133 0.16561,-0.53236 0.86546,-1.17185 0.86546,-1.17185 l -0.0357,-1.34636 -0.5284,-0.0748 -1.07498,-1.43267 c 0,0 -0.4801,-0.56726 -0.49849,-1.31186 -0.0184,-0.74494 0.0377,-3.05139 0.0377,-3.05139 l -0.0736,-0.004 0,-0.0192 c 0,-0.9043 -0.7217,-1.65404 -1.66128,-1.78174 l 0,-0.98197 c 0.15448,-0.0679 0.25936,-0.19263 0.25936,-0.33563 0,-0.14301 -0.10486,-0.26778 -0.25936,-0.33563 l 0,-0.53318 -0.49654,0 0,0.51783 c -0.1747,0.0633 -0.29713,0.19685 -0.29713,0.35098 0,0.15414 0.12243,0.28766 0.29713,0.35097 l 0,0.95896 c -0.97176,0.0978 -1.72868,0.85795 -1.73296,1.78174 -0.0389,0.009 -0.0593,0.0186 -0.0561,0.0306 0.0448,0.16214 0,2.50094 0,2.50094 0,0 0.20155,0.77906 -0.11172,1.18719 -0.31203,0.40559 -0.98981,1.14086 -0.99717,1.14883 -4e-4,-0.008 -0.47909,-7.6396 0,-8.56154 0.4794,-0.9224 1.69711,-1.20638 1.69711,-1.20636 l 0,-0.70963 1.36416,-0.35482 -1.69711,-0.65975 0.14355,-0.1707 -1.94647,-2.59493 c 0,0 -0.7223,-0.85456 -0.74977,-1.97736 -0.0286,-1.12282 0.0561,-4.59916 0.0561,-4.59916 l -0.11171,-0.004 0,-0.0288 c 0,-1.36324 -1.08713,-2.49265 -2.50274,-2.68507 l 0,-1.48063 c 0.2326,-0.10229 0.38883,-0.28939 0.38883,-0.50441 0,-0.21538 -0.15623,-0.40403 -0.38883,-0.50632 l 0,-0.80553 -0.74987,0 0,0.78251 c -0.26375,0.0954 -0.44672,0.29656 -0.44672,0.52934 0,0.23242 0.18297,0.43174 0.44672,0.52742 l 0,1.44419 c -1.46452,0.14752 -2.60566,1.29261 -2.6125,2.68507 -0.0593,0.0133 -0.0909,0.0299 -0.0857,0.0479 0.0684,0.2446 0,3.7687 0,3.7687 0,0 0.30703,1.17652 -0.16551,1.79133 -0.0623,0.0806 -0.16746,0.19329 -0.24527,0.28769 l -0.17756,-0.069 -8.9562,-2.48177 0.13357,-0.15919 -1.94443,-2.59303 c 0,0 -0.72434,-0.8549 -0.75181,-1.97736 -0.0286,-1.1228 0.0561,-4.59914 0.0561,-4.59914 l -0.10971,-0.004 0,-0.0306 c 0,-1.36323 -1.08703,-2.49039 -2.50275,-2.68315 l 0,-1.48062 c 0.2326,-0.10265 0.38883,-0.29096 0.38883,-0.50633 0,-0.21538 -0.15623,-0.40369 -0.38883,-0.50633 l 0,-0.8036 -0.74987,0 0,0.78059 c -0.26374,0.0953 -0.44671,0.2969 -0.44671,0.52934 0,0.23242 0.18297,0.43401 0.44671,0.52935 l 0,1.44418 c -1.46453,0.14718 -2.60567,1.29225 -2.61251,2.68506 -0.0592,0.0129 -0.0889,0.0276 -0.0837,0.0461 0.0684,0.24425 0,3.76869 0,3.76869 0,0 0.305,1.17616 -0.16755,1.79133 -0.2185,0.28437 -0.56139,0.67613 -0.86352,1.01648 l 0,-5.3874 1.47576,-2.5489 0,-2.51437 -1.2404,-0.54853 c 0.23556,-7.80676 1.56316,-12.21764 -6.94204,-17.12501 -1.43849,-0.8302 -2.96733,-1.23105 -4.52303,-1.35213 l -0.27325,-1.59954 c 0.2953,-0.11725 0.47266,-0.26889 0.47266,-0.43345 0,-0.19251 -0.242,-0.36589 -0.6302,-0.48906 l -0.31113,-1.82201 c 0.34952,-0.12421 0.57037,-0.30784 0.57037,-0.51209 0,-0.2381 -0.29998,-0.44696 -0.75385,-0.56769 l -0.29315,-1.71845 c 0.27099,-0.12387 0.44478,-0.31798 0.44478,-0.5351 0,-0.26582 -0.26058,-0.49507 -0.6402,-0.60606 l -0.43478,-2.55465 c 0,0 -0.17215,1.04605 -0.4068,2.51054 -0.47745,0.0828 -0.82562,0.34294 -0.82562,0.65017 0,0.26236 0.25434,0.48984 0.62621,0.60223 -0.0837,0.52992 -0.17011,1.08659 -0.25731,1.64748 -0.46489,0.12003 -0.77376,0.33032 -0.77376,0.57153 0,0.21051 0.23546,0.39938 0.60427,0.5236 -0.094,0.61237 -0.18604,1.21423 -0.26926,1.77789 -0.45254,0.12432 -0.74181,0.31179 -0.74181,0.52167 0,0.18615 0.2279,0.35509 0.59631,0.47756 -0.1,0.69276 -0.17614,1.28103 -0.22137,1.6916 -1.46891,0.20146 -2.91914,0.55039 -4.29973,0.92443 -2.01058,0.54479 -5.6606,2.80304 -7.43061,5.14384 l 0,-0.60606 0.9792,-1.68968 0,-1.66858 -0.8237,-0.36441 c 0.15591,-5.17911 1.03751,-8.106 -4.60482,-11.36169 -0.95428,-0.55078 -1.96912,-0.81529 -3.00132,-0.89566 l -0.18145,-1.06252 c 0.19575,-0.078 0.3151,-0.17843 0.3151,-0.28769 0,-0.12769 -0.16143,-0.24237 -0.41884,-0.32413 l -0.20544,-1.20828 c 0.23188,-0.0826 0.37893,-0.20408 0.37893,-0.33947 0,-0.15797 -0.19953,-0.29554 -0.50053,-0.3759 l -0.19545,-1.14117 c 0.17982,-0.0825 0.2951,-0.21044 0.2951,-0.35481 0,-0.17606 -0.17297,-0.32903 -0.42477,-0.40277 l -0.28917,-1.6935 c 0,0 -0.11357,0.69293 -0.26914,1.66474 -0.31694,0.055 -0.54853,0.22762 -0.54853,0.43153 0,0.17431 0.17206,0.32445 0.41884,0.39892 -0.0561,0.35177 -0.11371,0.72091 -0.17153,1.09322 -0.30867,0.0796 -0.51248,0.21968 -0.51248,0.37974 0,0.13952 0.15643,0.26469 0.40087,0.34715 -0.0623,0.4064 -0.12414,0.80583 -0.1795,1.17951 -0.3003,0.0825 -0.49063,0.20605 -0.49063,0.34522 0,0.12352 0.15052,0.23696 0.39486,0.31838 -0.0654,0.45963 -0.12057,0.84954 -0.14959,1.12197 -0.97431,0.13362 -1.9381,0.3653 -2.85378,0.61374 -1.80433,0.48851 -5.60587,3.05593 -5.60587,5.02875 0,0.3636 -0.0419,3.0166 0.11357,3.44456 0.1555,0.42806 0.35298,2.30917 0.35298,2.30917 l -0.47858,0.0556 -0.35297,0.14959 c 0,0 -0.0224,-0.18277 -0.0224,-0.3644 0,-0.18198 0.0776,-0.32052 0.17745,-0.50249 0.10015,-0.18164 -0.33357,-0.41801 -0.71198,-0.2896 -0.37913,0.26651 -0.55639,0.85154 -0.55639,0.85154 l 0,1.25432 1.07295,1.5209 c 0,0 -0.22239,5.91069 -0.0899,6.16608 0.13271,0.25504 0.13371,1.5305 0.13371,1.5305 l 0,8.42729 -0.57833,0.0843 -0.25924,1.09896 -1.6234,0.88799 -1.58541,-2.34177 0,3.65362 -0.59029,0.17836 0.0714,1.16993 -1.03903,0.39125 -0.32511,1.16992 -12.55997,3.96624 0,-5.80359 0.36902,-1.25815 0,-4.34598 0.81165,-1.40199 0,-1.38281 -0.68208,-0.30111 c 0.12947,-4.29326 0.86025,-6.72022 -3.81706,-9.41887 -0.79123,-0.45684 -1.63361,-0.67577 -2.48885,-0.74223 l -0.14949,-0.88031 c 0.16245,-0.0647 0.26119,-0.14736 0.26119,-0.23783 0,-0.10576 -0.1312,-0.20065 -0.34502,-0.26851 l -0.17144,-1.00306 c 0.19217,-0.0682 0.31102,-0.16763 0.31102,-0.28002 0,-0.13082 -0.16531,-0.24651 -0.41476,-0.31261 l -0.15949,-0.94553 c 0.14826,-0.0683 0.24322,-0.17602 0.24322,-0.29536 0,-0.14614 -0.1406,-0.27248 -0.349,-0.33371 l -0.23924,-1.40391 c 0,0 -0.095,0.5754 -0.22341,1.38089 -0.26272,0.0456 -0.45468,0.18764 -0.45468,0.35673 0,0.1444 0.13989,0.26986 0.34502,0.3318 -0.0459,0.29157 -0.095,0.59663 -0.14356,0.90526 -0.25537,0.0658 -0.42487,0.18388 -0.42487,0.31644 0,0.11587 0.13039,0.21759 0.33307,0.28578 -0.0521,0.33681 -0.10211,0.66845 -0.14754,0.97813 -0.24884,0.0681 -0.40884,0.17218 -0.40884,0.28768 0,0.10231 0.12477,0.19526 0.32705,0.26276 -0.0541,0.38098 -0.096,0.70438 -0.12161,0.93018 -0.80798,0.111 -1.60482,0.30259 -2.36521,0.50825 -1.49566,0.40534 -4.64668,2.53263 -4.64668,4.16762 0,0.30166 -0.0367,2.50118 0.0919,2.85577 0.12917,0.3549 0.29519,1.91599 0.29519,1.91599 l -0.39689,0.0441 -0.29508,0.12467 c 0,0 -0.0184,-0.15046 -0.0184,-0.30112 0,-0.151 0.0643,-0.26551 0.14754,-0.41618 0.0827,-0.15101 -0.2764,-0.34586 -0.59027,-0.23974 -0.31439,0.22129 -0.46071,0.70579 -0.46071,0.70579 l 0,1.03951 0.88741,1.26006 c 0,0 -0.18206,4.89969 -0.0715,5.11123 0.10997,0.21155 0.10977,1.26773 0.10977,1.26773 l 0,7.89605 -0.34502,0.0306 c 0,0 -0.62704,0.24721 -1.05099,0.47756 -0.42445,0.23068 -0.62663,0.887 -1.05098,0.99347 -0.42405,0.10648 -0.49859,0.19562 -0.49859,0.19562 l -0.99513,-1.4902 c 0,0 -0.18563,2.67808 -0.55444,3.22784 -0.36902,0.55009 -0.14346,0.71155 -0.14357,0.71153 l -1.16667,0.2992 0,1.38473 -3.09711,0.85155 c 0,0 0.62643,0.24864 1.21651,0.5677 0.59007,0.31941 0.94122,1.09896 0.94132,1.09896 l 0,36.53809 -1.29227,0 0.68402,1.96778 0,25.73259 -8.68511,0 0,-129.22873 0.72996,-0.0384 1.88653,0 c 0,0 -2.1033,-1.90546 -2.47487,-2.73878 -0.37157,-0.83332 -0.80572,-9.82162 -0.80572,-9.82162 0,0 0,-4.70309 -2.9076,-7.56039 -2.16538,-2.12662 -4.77707,-3.36388 -6.58314,-3.85691 l 0.1117,-1.45569 -2.97151,-2.39739 0.54249,-0.89183 -2.29148,-22.94779 z m -880.49639,38.45408 c 0.62606,-0.0742 1.29897,1.33983 2.02619,4.4649 l 0,44.12342 -3.76917,0 0,-44.12342 c 0.53887,-2.82793 1.1169,-4.39059 1.74298,-4.4649 z m 7.16343,12.14612 c 0.6261,-0.0559 1.30079,1.00791 2.02819,3.35826 l 0,33.08394 -3.77118,0 0,-33.08394 c 0.53893,-2.1268 1.1169,-3.30237 1.74299,-3.35826 z m -14.7018,2.17683 c 0.6261,-0.0528 1.2988,0.95253 2.0262,3.17414 l 0,31.09123 -3.77119,0 0,-31.09123 c 0.5389,-2.01041 1.1189,-3.12134 1.74499,-3.17414 z m 874.37603,1.028 3.46806,0 0,8.39468 -3.46806,0 z m 7.49444,0 5.94098,0 0,8.39468 -5.94098,0 z m 10.95453,0 5.94293,0 0,8.39468 -5.94293,0 z m -870.34353,8.67086 c 0.62609,-0.0376 1.29876,0.67914 2.02619,2.26315 l 0,22.30336 -3.77117,0 0,-22.30336 c 0.53888,-1.43334 1.1189,-2.22548 1.74498,-2.26315 z m -29.92808,4.53204 c 0.6262,-0.0316 1.29882,0.57204 2.02618,1.90448 l 0,18.12999 -3.77117,0 0,-18.12999 c 0.5389,-1.20578 1.11893,-1.87283 1.74499,-1.90448 z m 1087.28681,10.83042 0.49655,0 0,3.13386 -0.49655,0 z m 1.34607,0 0.9932,0 0,3.13386 -0.9932,0 z m 1.96843,0 0.49655,0 0,3.13386 -0.49655,0 z m -665.172557,29.32675 c 1.692958,-2.7e-4 3.065386,2.2196 3.0652,4.95781 -4.71e-4,2.73748 -1.372728,4.95615 -3.0652,4.95587 -1.692485,2.9e-4 -3.064742,-2.21839 -3.065214,-4.95587 -1.71e-4,-2.73823 1.372257,-4.9581 3.065214,-4.95781 z m 659.800007,4.15037 5.35264,0 0,2.72726 -5.35264,0 z m -121.16219,2.75794 0,27.7042 -3.79909,0.70963 0,-27.63323 z m 9.55456,0.2129 3.79908,0.78058 0,27.63324 -3.79908,-0.70963 z m 111.60763,6.74528 5.35264,0 0,2.72727 -5.35264,0 z m -139.76086,0.0517 c 2.93343,6.3e-4 5.31119,3.82861 5.31079,8.55003 -3.1e-4,4.72069 -2.37777,8.54751 -5.31079,8.54813 -2.93373,9.9e-4 -5.31242,-3.82622 -5.31272,-8.54813 -4.1e-4,-4.72265 2.37848,-8.55112 5.31272,-8.55003 z m 38.70494,5.03453 3.79706,0.50056 0,17.74643 -3.79706,-0.45455 z m -560.596772,1.77406 c 1.615885,-0.0432 3.302285,0.17793 5.057485,0.65593 l 0,13.99307 -8.262285,0 0,-14.21172 c 1.040228,-0.25098 2.105385,-0.40791 3.2048,-0.43728 z m 572.987142,0.18412 3.79909,0.50057 0,17.74451 -3.79909,-0.45455 z m -577.910999,0.76908 0,13.6958 -5.109343,0 0,-10.83811 c 1.624571,-1.2461 3.325014,-2.20722 5.109343,-2.85769 z m 11.7004,0.24933 c 1.6975,0.61817 3.457957,1.47071 5.2948,2.60836 l 0,10.83811 -5.2948,0 z m 654.876149,1.27924 5.35264,0 0,2.72728 -5.35264,0 z m -1200.60557,0.21098 c 1.52195,0.0316 3.04282,0.96861 4.56491,2.71767 l 0,13.33906 -9.13179,0 0,-13.33906 c 1.52188,-1.87558 3.04494,-2.74929 4.56688,-2.71767 z m 21.94302,0 c 1.52199,0.0316 3.04481,0.96861 4.56689,2.71767 l 0,13.33906 -9.13378,0 0,-13.33906 c 1.52208,-1.87558 3.0449,-2.74929 4.56689,-2.71767 z m 23.25324,0 c 1.52199,0.0316 3.04482,0.96861 4.5669,2.71767 l 0,13.33906 -9.13178,0 0,-13.33906 c 1.52207,-1.87558 3.0429,-2.74929 4.56488,-2.71767 z m 1155.40931,7.90178 5.35264,0 0,2.72728 -5.35264,0 z m -694.261078,0.39126 c 1.485114,-0.0383 3.035186,0.15921 4.648643,0.58496 l 0,12.3686 -7.1056,0 0,-12.68122 c 0.800457,-0.15824 1.618671,-0.25072 2.456957,-0.27234 z m 63.6213573,0 c 1.4994571,-0.0387 3.0657285,0.16188 4.6965143,0.59647 l 0,12.35709 -7.1055996,0 0,-12.68889 c 0.7853995,-0.15255 1.5873281,-0.24348 2.4090853,-0.26467 z m -4.1281433,0.7173 0,12.23626 -5.061471,0 0,-9.5838 c 1.6031,-1.18706 3.287657,-2.0802 5.061471,-2.65246 z m -63.669243,0.0173 0,12.219 -5.0136,0 0,-9.5838 c 1.588529,-1.17627 3.257586,-2.06217 5.0136,-2.6352 z m 10.543743,0.38358 c 1.504715,0.54243 3.064586,1.28068 4.688543,2.25162 l 0,9.5838 -4.688543,0 z m 63.669229,0.0153 c 1.49087142,0.54104 3.0354,1.27526 4.6426714,2.23628 l 0,9.58379 -4.6426714,0 z m 595.761835,3.24893 5.35264,0 0,4.39777 -5.35264,0 z m 11.09615,0 5.35255,0 0,4.39777 -5.35255,0 z m 41.7222,0 5.35266,0 0,4.39777 -5.35266,0 z m 11.09616,0 5.35266,0 0,4.39777 -5.35266,0 z m -393.30695,3.29688 c 2.49866,0.0954 5.21654,2.04409 8.19847,6.23896 l 0,17.73108 -15.9203,0 0,-17.73108 c 2.33886,-4.07487 4.88979,-6.34703 7.72183,-6.23896 z m -311.842852,0.84772 c 0.945185,-0.0825 1.977928,0.9067 3.119028,3.21633 l 0,9.15228 -5.7116,0 0,-9.15228 c 0.789815,-1.9796 1.647372,-3.13381 2.592572,-3.21633 z m 8.613271,0 c 1.444686,-0.0825 3.023914,0.9067 4.7683,3.21633 l 0,9.15228 -8.730928,0 0,-9.15228 c 1.207128,-1.9796 2.518014,-3.13381 3.962628,-3.21633 z m 8.707,0 c 0.945229,-0.0825 1.977757,0.9067 3.119043,3.21633 l 0,9.15228 -5.7116,0 0,-9.15228 c 0.7898,-1.9796 1.647329,-3.13381 2.592557,-3.21633 z m 652.377321,0.28577 5.35264,0 0,5.18219 -5.35264,0 z m -1417.45905,0.0384 3.45408,0 0,2.62945 -3.45408,0 z m 957.06662,5.02875 c 1.33122,-0.0996 2.7861,1.09484 4.39338,3.88186 l 0,11.04524 -8.0449,0 0,-11.04524 c 1.11234,-2.3888 2.32029,-3.78231 3.65152,-3.88186 z m 200.64199,0 c 1.33127,-0.0996 2.78619,1.09484 4.39345,3.88186 l 0,11.04524 -8.0449,0 0,-11.04524 c 1.11236,-2.3888 2.32028,-3.78231 3.65145,-3.88186 z m -1157.70861,1.80668 3.45408,0 0,2.62945 -3.45408,0 z m 1296.29686,0.32413 0,10.46027 -3.79909,0.2666 0,-10.43151 z m 92.69989,0.0652 5.35264,0 0,4.39776 -5.35264,0 z m 11.09615,0 5.35255,0 0,4.39776 -5.35255,0 z m 41.7222,0 5.35266,0 0,4.39776 -5.35266,0 z m 11.09616,0 5.35266,0 0,4.39776 -5.35266,0 z m -478.51839,0.34714 7.84549,0 0,13.06671 -7.84549,0 z m 15.34795,0 7.84548,0 0,13.06671 -7.84548,0 z m 14.89724,0 7.84545,0 0,13.06671 -7.84545,0 z m 14.72572,0 7.84549,0 0,13.06671 -7.84549,0 z m 69.58819,0 7.84549,0 0,13.06671 -7.84549,0 z m 15.348,0 7.84548,0 0,13.06671 -7.84548,0 z m 14.89525,0 7.84548,0 0,13.06671 -7.84548,0 z m 14.72371,0 7.84548,0 0,13.06671 -7.84548,0 z m -1116.77216,0.26851 56.06706,0 0,7.16914 -56.06706,0 z m 1289.59205,0.0997 3.7991,0.26851 0,9.46488 -3.7991,-0.24167 z m -590.951591,0.44687 c 0.886157,-0.0649 1.855557,0.71451 2.925614,2.53164 l 0,7.19983 -5.356628,0 0,-7.19983 c 0.740414,-1.55756 1.544914,-2.46675 2.431014,-2.53164 z m 8.078814,0 c 1.354415,-0.0649 2.833858,0.71451 4.469172,2.53164 l 0,7.19983 -8.1845,0 0,-7.19983 c 1.1317,-1.55756 2.360986,-2.46675 3.715328,-2.53164 z m 8.162572,0 c 0.886186,-0.0649 1.853771,0.71451 2.9236,2.53164 l 0,7.19983 -5.354629,0 0,-7.19983 c 0.740415,-1.55756 1.544843,-2.46675 2.431029,-2.53164 z m 47.102786,0 c 0.886143,-0.0649 1.853771,0.71451 2.9236,2.53164 l 0,7.19983 -5.354629,0 0,-7.19983 c 0.7406,-1.55756 1.544914,-2.46675 2.431029,-2.53164 z m 8.0748283,0 c 1.3543714,-0.0649 2.8338428,0.71451 4.4691571,2.53164 l 0,7.19983 -8.1845004,0 0,-7.19983 c 1.1317,-1.55756 2.3609575,-2.46675 3.7153433,-2.53164 z m 8.16255712,0 c 0.88611428,-0.0649 1.85358568,0.71451 2.92361428,2.53164 l 0,7.19983 -5.3546286,0 0,-7.19983 c 0.7403715,-1.55756 1.54487146,-2.46675 2.43101432,-2.53164 z M -578.32717,757.8938 c 2.14137,0.0528 4.28406,1.62012 6.42554,4.54544 l 0,19.53774 -12.84911,0 0,-19.53774 c 2.14147,-3.13651 4.28218,-4.59824 6.42357,-4.54544 z m 22.67092,0.0517 c 2.14128,0.0528 4.28208,1.62013 6.42355,4.54544 l 0,19.48596 -12.84711,0 0,-19.48596 c 2.14146,-3.13669 4.28227,-4.59829 6.42356,-4.54544 z m 23.57232,0 c 2.14133,0.0528 4.28189,1.62013 6.42358,4.54544 l 0,19.48596 -12.84713,0 0,-19.48596 c 2.14128,-3.13669 4.28223,-4.59829 6.42355,-4.54544 z m 1054.17781,0.0614 3.79511,0.26659 0,9.4668 -3.79511,-0.24357 z m -784.78712,0.37783 9.23749,0 0,14.2328 -9.23749,0 z m 797.26939,0.9743 3.79908,0.26659 0,9.46487 -3.79908,-0.24165 z m -722.51599,0.3855 c 2.70219,0.0453 5.4043,1.38905 8.10673,3.89719 l 0,18.33521 -16.21344,0 0,-18.33521 c 2.70222,-2.68925 5.40448,-3.94247 8.10671,-3.89719 z m -437.79724,1.1354 c 1.52198,0.0317 3.04281,0.96846 4.5649,2.71767 l 0,13.33906 -9.13179,0 0,-13.33906 c 1.52207,-1.87552 3.0449,-2.74924 4.56689,-2.71767 z m 16.4049,0 c 1.52194,0.0317 3.04482,0.96844 4.5669,2.71767 l 0,13.33906 -9.13179,0 0,-13.33906 c 1.52189,-1.87552 3.04296,-2.74924 4.56489,-2.71767 z m 106.71367,0 c 1.52194,0.0317 3.04481,0.96837 4.5669,2.71767 l 0,13.33906 -9.13179,0 0,-13.33906 c 1.52189,-1.87559 3.04295,-2.74924 4.56489,-2.71767 z m 16.40491,0 c 1.52189,0.0317 3.0448,0.96838 4.56689,2.71767 l 0,13.33906 -9.13179,0 0,-13.33906 c 1.52207,-1.87558 3.043,-2.74924 4.5649,-2.71767 z m -308.59416,1.39235 3.4541,0 0,2.62946 -3.4541,0 z m 1417.45907,0.0269 5.35264,0 0,5.18219 -5.35264,0 z m -1417.45907,8.38701 3.4541,0 0,2.62754 -3.4541,0 z m 1233.6786,1.13349 5.94089,0 0,10.15725 -5.94089,0 z m -482.417179,6.27733 10.402142,0 0,3.87992 -0.02386,0 0,10.17834 -10.402128,0 0,-13.75331 0.02386,0 z m -751.261421,0.61948 3.4541,0 0,2.62945 -3.4541,0 z m 1419.75044,2.19984 c 1.7012,-0.0729 3.5618,0.80272 5.61588,2.84234 l 0,8.08207 -10.28053,0 0,-8.08207 c 1.42143,-1.74823 2.96345,-2.76948 4.66465,-2.84234 z m -12.3047,3.37556 c 0.96205,-0.0503 2.01334,0.55477 3.17491,1.96394 l 0,5.58494 -5.81336,0 0,-5.58494 c 0.80379,-1.20789 1.6765,-1.91367 2.63845,-1.96394 z m 24.03504,0 c 0.96206,-0.0503 2.01324,0.55477 3.17491,1.96394 l 0,5.58494 -5.81538,0 0,-5.58494 c 0.80408,-1.20789 1.67843,-1.91367 2.64047,-1.96394 z"
       style="clip-rule:evenodd;fill:#666666;fill-opacity:1;fill-rule:evenodd;stroke:none;image-rendering:optimizeQuality;shape-rendering:geometricPrecision;text-rendering:geometricPrecision" />
    <g
       style="clip-rule:evenodd;fill:#ffffff;fill-rule:evenodd;image-rendering:optimizeQuality;shape-rendering:geometricPrecision;text-rendering:geometricPrecision"
       id="_225426744"
       transform="matrix(3.5433073,0,0,3.5433073,-842.97315,399.01317)" />
    <g
       style="clip-rule:evenodd;fill:#ffffff;fill-rule:evenodd;image-rendering:optimizeQuality;shape-rendering:geometricPrecision;text-rendering:geometricPrecision"
       id="_225423264"
       transform="matrix(3.5433073,0,0,3.5433073,-842.97315,399.01317)" />
  </g>
  <g
     transform="translate(1.6421776e-5,-215.92493)"
     style="display:inline"
     id="layer5">
    <flowRoot
       style="font-style:normal;font-weight:normal;font-size:15px;line-height:125%;font-family:Sans;letter-spacing:0px;word-spacing:0px;fill:#000000;fill-opacity:1;stroke:none;stroke-width:1px;stroke-linecap:butt;stroke-linejoin:miter;stroke-opacity:1"
       id="flowRoot5103"
       xml:space="preserve"><flowRegion
         id="flowRegion5105"><rect
           y="264.49637"
           x="15.714286"
           height="132.85715"
           width="1421.4286"
           id="rect5107" /></flowRegion><flowPara
         id="flowPara5109" /></flowRoot>  </g>
  <g
     transform="translate(1.6421776e-5,-215.92493)"
     style="display:inline"
     id="layer6">
    <path
       id="path5120"
       d="m 1242.217,224.49663 a 10.34632,10 0 0 0 -9.8997,7.12696 L 701.01148,250.9478 a 10.34632,10 0 0 0 -10.10586,-7.88086 10.34632,10 0 0 0 -8.98634,5.07227 L 375.19736,231.89507 a 10.34632,10 0 0 0 -9.46122,-5.9707 10.34632,10 0 0 0 -10.34632,10 10.34632,10 0 0 0 0.2142,2.01562 l -109.2244,75.75977 a 10.34632,10 0 0 0 -6.27853,-2.06055 10.34632,10 0 0 0 -10.34631,10 10.34632,10 0 0 0 0.012,0.24609 L 101.9696,365.55523 a 10.34632,10 0 0 0 -8.19421,-3.91602 10.34632,10 0 0 0 -10.346317,10 10.34632,10 0 0 0 10.346317,10 10.34632,10 0 0 0 10.34632,-10 10.34632,10 0 0 0 -0.46073,-2.95117 l 126.83942,-43.3418 a 10.34632,10 0 0 0 9.60065,6.29297 10.34632,10 0 0 0 9.57035,-6.2207 l 134.06366,46.89453 a 10.34632,10 0 0 0 -0.26271,2.18359 10.34632,10 0 0 0 10.34633,10 10.34632,10 0 0 0 10.34631,-10 10.34632,10 0 0 0 -0.52134,-3.11133 L 529.8324,325.80327 a 10.34632,10 0 0 0 7.35559,2.97852 10.34632,10 0 0 0 8.40436,-4.18946 l 89.23095,40.16993 a 10.34632,10 0 0 0 -0.0829,1.16211 10.34632,10 0 0 0 10.34632,10 10.34632,10 0 0 0 9.93004,-7.21289 l 112.09996,-66.00586 a 10.34632,10 0 0 0 9.51578,6.07617 10.34632,10 0 0 0 7.65265,-3.28516 l 73.45886,48.45899 a 10.34632,10 0 0 0 -1.29733,4.82617 10.34632,10 0 0 0 10.34632,10 10.34632,10 0 0 0 10.34632,-10 10.34632,10 0 0 0 -0.194,-1.9043 l 51.95187,-22.92383 a 10.34632,10 0 0 0 8.84085,4.82813 10.34632,10 0 0 0 8.73578,-4.65039 l 97.72008,28.21289 a 10.34632,10 0 0 0 10.3101,9.29492 10.34632,10 0 0 0 10.2189,-8.48047 l 128.3691,-18.42773 a 10.34632,10 0 0 0 9.2168,5.48047 10.34632,10 0 0 0 9.6047,-6.29688 l 216.917,11.79297 a 10.34632,10 0 0 0 9.9665,7.35937 10.34632,10 0 0 0 10.3463,-10 10.34632,10 0 0 0 -10.3463,-10 10.34632,10 0 0 0 -8.2224,3.94141 l -79.5877,-52.03711 a 10.34632,10 0 0 0 0.604,-3.33203 10.34632,10 0 0 0 -10.3463,-10 10.34632,10 0 0 0 -6.9473,2.60547 l -81.9158,-51.58399 a 10.34632,10 0 0 0 -10.1645,-8.16406 z m -14.6143,10.80078 -281.78152,87.25782 a 10.34632,10 0 0 0 -8.08306,-3.77344 10.34632,10 0 0 0 -9.7219,6.60742 L 786.9304,297.86577 a 10.34632,10 0 0 0 -10.29783,-9.08398 10.34632,10 0 0 0 -6.72107,2.40234 l -68.88184,-36.10547 a 10.34632,10 0 0 0 0.11317,-0.63086 l 526.45987,-19.15039 z m -851.5465,0.14649 304.62638,16.13476 a 10.34632,10 0 0 0 -0.12327,1.48828 10.34632,10 0 0 0 0.0667,1.09375 l -135.33675,58.41797 a 10.34632,10 0 0 0 -8.10124,-3.79687 10.34632,10 0 0 0 -6.90294,2.5664 l -154.2491,-74.54687 a 10.34632,10 0 0 0 0.0465,-0.87695 10.34632,10 0 0 0 -0.0263,-0.48047 z m 876.2222,1.33008 79.7939,50.24609 a 10.34632,10 0 0 0 -1.1741,4.61914 10.34632,10 0 0 0 0.275,2.24805 l -119.3142,42.48437 a 10.34632,10 0 0 0 -3.8596,-4.5039 l 33.6175,-87.39258 a 10.34632,10 0 0 0 0.6001,0.0215 10.34632,10 0 0 0 10.0614,-7.72265 z m -21.8829,1.33593 -168.0893,116.97266 a 10.34632,10 0 0 0 -7.8021,-3.44336 10.34632,10 0 0 0 -9.9139,7.16602 l -96.74624,-27.93164 a 10.34632,10 0 0 0 0.24048,-2.0918 10.34632,10 0 0 0 -0.51529,-3.09375 l 282.82635,-87.57813 z m 3.2798,2.0293 a 10.34632,10 0 0 0 4.397,3.50586 l -33.4051,86.8418 a 10.34632,10 0 0 0 -2.3582,-0.27539 10.34632,10 0 0 0 -10.3464,10 10.34632,10 0 0 0 0.072,1.13281 l -127.3971,18.28711 a 10.34632,10 0 0 0 -0.4709,-1.53321 l 169.5082,-117.95898 z m -858.61938,0.10547 152.95983,73.91992 a 10.34632,10 0 0 0 -1.17407,4.61719 10.34632,10 0 0 0 0.89115,4.04492 l -125.82701,45.45117 a 10.34632,10 0 0 0 -6.83423,-3.69531 l -24.99888,-119.5918 a 10.34632,10 0 0 0 4.98321,-4.74609 z m -18.04747,1.0293 a 10.34632,10 0 0 0 8.72769,4.65039 10.34632,10 0 0 0 0.82851,-0.041 l 24.85341,118.89844 a 10.34632,10 0 0 0 -6.29268,4.29687 L 250.43529,321.96343 a 10.34632,10 0 0 0 0.012,-0.32422 10.34632,10 0 0 0 -1.60854,-5.33398 l 108.16957,-75.03125 z m 324.65824,16.26953 a 10.34632,10 0 0 0 3.70609,3.96875 l -35.05423,95.79883 a 10.34632,10 0 0 0 -5.23175,-1.38672 10.34632,10 0 0 0 -9.21067,5.44922 l -88.71565,-39.93555 a 10.34632,10 0 0 0 0.37384,-2.65625 10.34632,10 0 0 0 -0.52337,-3.11328 l 134.65574,-58.125 z m 18.01512,0.80859 67.90583,35.59766 a 10.34632,10 0 0 0 -1.3014,4.83203 10.34632,10 0 0 0 0.0162,0.30469 L 655.30577,364.4439 a 10.34632,10 0 0 0 -2.05714,-4.64453 l 35.48263,-96.96875 a 10.34632,10 0 0 0 2.17433,0.23632 10.34632,10 0 0 0 8.77618,-4.71484 z m 632.91189,38.75977 a 10.34632,10 0 0 0 8.6509,4.52734 10.34632,10 0 0 0 7.9517,-3.61523 l 79.7172,52.12304 a 10.34632,10 0 0 0 -0.4142,2.03711 L 1212.6472,340.4478 a 10.34632,10 0 0 0 0.01,-0.23632 10.34632,10 0 0 0 -0.02,-0.38282 l 119.9588,-42.71679 z m -545.9745,4.26367 140.77462,27.46289 a 10.34632,10 0 0 0 0.19197,1.84766 l -51.95186,22.92382 a 10.34632,10 0 0 0 -8.84086,-4.82812 10.34632,10 0 0 0 -6.76551,2.44336 l -73.81252,-48.69141 a 10.34632,10 0 0 0 0.40416,-1.1582 z"
       style="fill:#dc0067;fill-opacity:1;stroke:#ffffff;stroke-width:0;stroke-miterlimit:4;stroke-dasharray:none;stroke-dashoffset:0;stroke-opacity:1" />
  </g>
  <g
     transform="translate(1.6421776e-5,-215.92493)"
     style="display:inline"
     id="layer7">
    <g
       id="layer9" />
    <g
       transform="translate(-527.16986,367.52073)"
       id="g6853">
      <g
         style="display:inline"
         id="layer8">
        <g
           transform="matrix(0.70197657,0,0,0.70197657,1153.5051,-477.88231)"
           id="g6899">
          <path
             style="display:inline;fill:#ffcc00"
             d="m 382.13275,606.36078 c 3.22821,-3.22935 4.49324,-4.58288 4.49324,-4.80757 l 0,-0.31275 -9.47581,0 -9.4758,0 0,-4.59855 0,-4.59855 9.48549,0 c 9.39233,0 9.48506,-0.003 9.44097,-0.27737 -0.0245,-0.15255 -2.0405,-2.31596 -4.48001,-4.80757 l -4.43549,-4.53021 6.41903,0 6.41902,0 0.39782,0.38321 c 0.2188,0.21077 3.39485,3.40576 7.05789,7.09999 l 6.66006,6.71678 -7.01412,7.11371 -7.01411,7.11371 -6.48571,0 -6.4857,0 z m 107.64679,2.5088 c -6.61025,-6.61059 -12.01863,-12.11331 -12.01863,-12.22827 0,-0.11497 5.40866,-5.61741 12.01925,-12.22767 l 12.01923,-12.01863 11.14605,0 11.14604,0 -7.92315,7.92768 c -4.68899,4.69167 -7.89739,8.00502 -7.86003,8.11714 0.0526,0.15772 2.76921,0.20113 16.21615,0.25913 l 16.153,0.0697 0,7.87327 0,7.87328 -16.11508,0.0354 c -14.96027,0.0329 -16.12153,0.0522 -16.20516,0.27013 -0.0681,0.17743 1.8409,2.16677 7.82211,8.15139 l 7.91216,7.91669 -11.14665,0 -11.14664,0 z"
             id="path6873" />
          <path
             style="fill:#dc0067;fill-opacity:1;stroke:#dc0067;stroke-width:2.52538133;stroke-miterlimit:4;stroke-dasharray:none;stroke-dashoffset:0;stroke-opacity:1"
             d="m 605.05306,623.66336 c -15.39236,-2.44217 -29.45393,-8.74013 -43.84474,-19.63737 -0.89703,-0.67928 -2.70064,0.37799 -6.15181,3.60615 -18.92683,17.70384 -47.14528,20.61284 -69.44594,7.1591 -12.39642,-7.47863 -22.66757,-21.1948 -26.29224,-35.11087 -1.94523,-7.46822 -1.97233,-22.49087 -0.0536,-29.70087 4.05737,-15.24626 16.50704,-30.79097 29.82441,-37.23891 12.49828,-6.05135 22.73459,-7.26311 42.2157,-4.99742 1.97943,0.23021 2.73362,-0.71772 5.20714,-6.54479 11.82592,-27.85928 38.17372,-48.5051 68.0524,-53.32505 10.23821,-1.6516 27.12769,-0.71392 37.05779,2.0574 31.73491,8.85666 56.31701,35.26871 63.17702,67.88007 1.9333,9.19057 1.87491,26.20565 -0.12338,35.95356 -6.71456,32.75454 -32.18528,59.55052 -64.56887,67.92843 -9.21984,2.38525 -26.36544,3.3491 -35.05389,1.97057 z m -76.02258,-3.54589 c 8.83019,-2.25436 17.37078,-6.75608 23.93199,-12.61448 l 5.78954,-5.16939 -6.32529,-7.25958 c -18.4537,-21.17946 -26.15397,-47.74874 -21.52125,-74.25771 0.90538,-5.18067 1.41142,-9.7992 1.12453,-10.26339 -0.28689,-0.4642 -3.78203,-1.39393 -7.76698,-2.06608 -17.75885,-2.99542 -35.4858,3.02437 -48.81378,16.57638 -22.61404,22.99416 -21.97959,58.20508 1.46147,81.1093 5.94391,5.80779 17.22129,12.00893 25.46781,14.00409 7.4569,1.80413 19.45794,1.7775 26.65196,-0.0592 l 0,5e-5 z m 111.84541,-15.37838 c 30.44796,-10.50945 49.26505,-36.73467 49.47115,-68.94752 0.0839,-13.10931 -1.69263,-20.52717 -7.98279,-33.33245 -3.92553,-7.99145 -6.16089,-11.03459 -13.38346,-18.21981 -14.44898,-14.37428 -30.70356,-21.17872 -50.59212,-21.17872 -28.0924,0 -52.51493,15.05001 -65.07446,40.10115 -5.54751,11.06503 -5.61416,12.48458 -0.7664,16.32408 l 4.04837,3.20636 1.7415,-5.3196 c 5.78891,-17.68277 17.55205,-31.02636 34.05965,-38.63577 24.11182,-11.11469 53.64357,-5.16553 71.53518,14.41075 11.03741,12.07668 16.33621,25.93515 16.305,42.64401 -0.0255,13.62325 -3.09207,23.83319 -10.47293,34.8685 -20.42101,30.53195 -62.07268,36.7306 -90.97075,13.53837 l -6.27268,-5.03416 -1.90261,4.83015 -1.90262,4.83015 4.35961,3.87809 c 5.68209,5.05452 20.71206,12.26825 29.65578,14.23349 11.38985,2.50273 27.15992,1.5944 38.14458,-2.19707 z m -2.85777,-11.16915 c 14.95584,-5.48183 27.26448,-16.29986 33.86162,-29.76089 5.80533,-11.84543 7.46937,-19.35308 6.88145,-31.04725 -2.60783,-51.87162 -64.24981,-77.19416 -101.76437,-41.80482 -3.82785,3.611 -8.42215,8.84445 -10.20957,11.6299 -3.443,5.36545 -7.99758,16.81733 -7.99758,20.10884 0,1.0805 1.99725,4.88182 4.43833,8.44738 7.94364,11.60288 11.3227,23.8793 10.3758,37.69618 l -0.56873,8.29897 5.46715,4.87281 c 6.06176,5.40275 15.65008,10.56338 23.88425,12.85499 8.18654,2.27835 27.82893,1.56385 35.63165,-1.29611 z m -68.13655,-11.74579 c 1.24615,-4.45079 1.20577,-4.6112 -2.39626,-9.51814 -7.89095,-10.74962 -11.93385,-24.2335 -11.63876,-38.81761 l 0.18499,-9.14337 -3.41916,-2.83585 c -1.88053,-1.55972 -3.75142,-2.84809 -4.15753,-2.86303 -1.52128,-0.056 -2.29186,5.89674 -2.28486,17.65049 0.008,13.81833 2.0369,22.13894 8.32975,34.16466 3.71486,7.09914 11.96122,17.22063 13.33736,16.37013 0.42734,-0.26411 1.34735,-2.51738 2.04447,-5.00728 z m 2.17575,-11.93993 c 0.51314,-16.23895 -2.57611,-27.66112 -10.31354,-38.13326 l -3.35862,-4.54569 -0.76891,3.53554 c -1.63518,7.51868 2.23125,26.3568 7.04918,34.34518 3.74825,6.2148 5.79651,9.07807 6.49861,9.08448 0.41669,0.004 0.81866,-1.92502 0.89328,-4.28625 z"
             id="path6892"
             transform="translate(-112.14286,45)" />
        </g>
      </g>
    </g>
  </g>
</svg>
